<?xml version="1.0" encoding="utf-8"?>
<svg xmlns="http://www.w3.org/2000/svg" style="margin: auto; display: block; shape-rendering: auto; background: none;" width="258" height="22" preserveAspectRatio="xMidYMid">
<style type="text/css">
  text {
    text-anchor: middle; font-size: 7px; opacity: 0;
  }
</style>
<g style="transform-origin: 129px 11px; transform: scale(0.0875);">
<g transform="translate(129,11)">
  <g transform="translate(0,0)"><g class="path" style="transform: scale(0.91); transform-origin: -1290.48px -6.29145px; animation: 1s linear -0.649355s infinite normal forwards running breath-9f59ce65-b751-4933-a246-1573cb4f95ef;"><path d="M11.76-28.08L11.76-28.08L11.76-28.08Q11.76-23.04 13.08-18.92L13.08-18.92L13.08-18.92Q14.40-14.80 16.76-11.84L16.76-11.84L16.76-11.84Q19.12-8.88 22.40-7.28L22.40-7.28L22.40-7.28Q25.68-5.68 29.60-5.68L29.60-5.68L29.60-5.68Q33.52-5.68 36.40-6.60L36.40-6.60L36.40-6.60Q39.28-7.52 42-9.12L42-9.12L44.32-2.80L44.32-2.80Q41.36-1.20 37.56-0.12L37.56-0.12L37.56-0.12Q33.76 0.96 28.72 0.96L28.72 0.96L28.72 0.96Q23.20 0.96 18.68-1.04L18.68-1.04L18.68-1.04Q14.16-3.04 10.88-6.76L10.88-6.76L10.88-6.76Q7.60-10.48 5.80-15.80L5.80-15.80L5.80-15.80Q4-21.12 4-27.76L4-27.76L4-27.76Q4-34.16 5.80-39.52L5.80-39.52L5.80-39.52Q7.60-44.88 10.96-48.76L10.96-48.76L10.96-48.76Q14.32-52.64 19.08-54.80L19.08-54.80L19.08-54.80Q23.84-56.96 29.68-56.96L29.68-56.96L29.68-56.96Q33.76-56.96 37-56.20L37-56.20L37-56.20Q40.24-55.44 43.12-54.08L43.12-54.08L40.80-47.68L40.80-47.68Q38.32-48.88 35.72-49.60L35.72-49.60L35.72-49.60Q33.12-50.32 29.60-50.32L29.60-50.32L29.60-50.32Q25.76-50.32 22.48-48.84L22.48-48.84L22.48-48.84Q19.20-47.36 16.80-44.48L16.80-44.48L16.80-44.48Q14.40-41.60 13.08-37.48L13.08-37.48L13.08-37.48Q11.76-33.36 11.76-28.08" fill="#ff0000" stroke="none" stroke-width="none" transform="translate(-1314.6400146484375,21.70854482343121)" style="fill: rgb(255, 0, 0);"></path></g><g class="path" style="transform: scale(0.91); transform-origin: -1241.56px 1.38855px; animation: 1s linear -0.63871s infinite normal forwards running breath-9f59ce65-b751-4933-a246-1573cb4f95ef;"><path d="M92.64-5.20L91.12 0.40L91.12 0.40Q87.28 0.40 85.04-1.12L85.04-1.12L85.04-1.12Q82.80-2.64 81.92-5.52L81.92-5.52L81.92-5.52Q79.12-2.64 75.48-0.84L75.48-0.84L75.48-0.84Q71.84 0.96 67.52 0.96L67.52 0.96L67.52 0.96Q64.80 0.96 62.28 0.12L62.28 0.12L62.28 0.12Q59.76-0.72 57.80-2.56L57.80-2.56L57.80-2.56Q55.84-4.40 54.68-7.36L54.68-7.36L54.68-7.36Q53.52-10.32 53.52-14.56L53.52-14.56L53.52-41.60L60.72-41.60L60.72-15.52L60.72-15.52Q60.72-10.64 62.76-8.04L62.76-8.04L62.76-8.04Q64.80-5.44 68.88-5.44L68.88-5.44L68.88-5.44Q72.24-5.44 75.28-6.76L75.28-6.76L75.28-6.76Q78.32-8.08 80.72-10.32L80.72-10.32L80.72-41.60L87.92-41.60L87.92-10.80L87.92-10.80Q87.92-9.04 88.32-7.96L88.32-7.96L88.32-7.96Q88.72-6.88 89.36-6.28L89.36-6.28L89.36-6.28Q90-5.68 90.88-5.44L90.88-5.44L90.88-5.44Q91.76-5.20 92.64-5.20L92.64-5.20" fill="#ff0000" stroke="none" stroke-width="none" transform="translate(-1314.6400146484375,21.70854482343121)" style="fill: rgb(255, 0, 0);"></path></g><g class="path" style="transform: scale(0.91); transform-origin: -1200.28px 0.908545px; animation: 1s linear -0.628065s infinite normal forwards running breath-9f59ce65-b751-4933-a246-1573cb4f95ef;"><path d="M98.64-3.36L101.68-9.36L101.68-9.36Q103.76-7.52 106.92-6.40L106.92-6.40L106.92-6.40Q110.08-5.28 113.68-5.28L113.68-5.28L113.68-5.28Q118.16-5.28 120.44-6.76L120.44-6.76L120.44-6.76Q122.72-8.24 122.72-10.56L122.72-10.56L122.72-10.56Q122.72-11.76 122.28-12.80L122.28-12.80L122.28-12.80Q121.84-13.84 120.68-14.80L120.68-14.80L120.68-14.80Q119.52-15.76 117.52-16.68L117.52-16.68L117.52-16.68Q115.52-17.60 112.32-18.72L112.32-18.72L112.32-18.72Q106.40-20.72 103.52-23.48L103.52-23.48L103.52-23.48Q100.64-26.24 100.64-31.12L100.64-31.12L100.64-31.12Q100.64-33.52 101.72-35.60L101.72-35.60L101.72-35.60Q102.80-37.68 104.84-39.24L104.84-39.24L104.84-39.24Q106.88-40.80 109.80-41.68L109.80-41.68L109.80-41.68Q112.72-42.56 116.48-42.56L116.48-42.56L116.48-42.56Q120.56-42.56 123.64-41.72L123.64-41.72L123.64-41.72Q126.72-40.88 129.20-39.60L129.20-39.60L127.20-33.68L127.20-33.68Q125.04-34.96 122.28-35.76L122.28-35.76L122.28-35.76Q119.52-36.56 116.16-36.56L116.16-36.56L116.16-36.56Q112-36.56 109.84-34.88L109.84-34.88L109.84-34.88Q107.68-33.20 107.68-31.20L107.68-31.20L107.68-31.20Q107.68-30.24 108.04-29.44L108.04-29.44L108.04-29.44Q108.40-28.64 109.36-27.92L109.36-27.92L109.36-27.92Q110.32-27.20 111.92-26.48L111.92-26.48L111.92-26.48Q113.52-25.76 115.92-24.96L115.92-24.96L115.92-24.96Q119.84-23.60 122.56-22.20L122.56-22.20L122.56-22.20Q125.28-20.80 126.96-19.12L126.96-19.12L126.96-19.12Q128.64-17.44 129.36-15.48L129.36-15.48L129.36-15.48Q130.08-13.52 130.08-11.12L130.08-11.12L130.08-11.12Q130.08-8.32 128.88-6.08L128.88-6.08L128.88-6.08Q127.68-3.84 125.52-2.28L125.52-2.28L125.52-2.28Q123.36-0.72 120.28 0.12L120.28 0.12L120.28 0.12Q117.20 0.96 113.44 0.96L113.44 0.96L113.44 0.96Q108.64 0.96 104.88-0.24L104.88-0.24L104.88-0.24Q101.12-1.44 98.64-3.36L98.64-3.36" fill="#ff0000" stroke="none" stroke-width="none" transform="translate(-1314.6400146484375,21.70854482343121)" style="fill: rgb(255, 0, 0);"></path></g><g class="path" style="transform: scale(0.91); transform-origin: -1165.48px -4.41146px; animation: 1s linear -0.617419s infinite normal forwards running breath-9f59ce65-b751-4933-a246-1573cb4f95ef;"><path d="M141.44-40.08L142.96-53.20L148.48-53.20L148.48-40.08L160-40.08L160-33.84L148.48-33.84L148.48-13.76L148.48-13.76Q148.48-11.44 149-9.84L149-9.84L149-9.84Q149.52-8.24 150.40-7.28L150.40-7.28L150.40-7.28Q151.28-6.32 152.52-5.88L152.52-5.88L152.52-5.88Q153.76-5.44 155.12-5.44L155.12-5.44L155.12-5.44Q157.12-5.44 158.88-6.08L158.88-6.08L158.88-6.08Q160.64-6.72 162.24-7.60L162.24-7.60L164.24-1.84L164.24-1.84Q162.64-0.88 159.92 0.04L159.92 0.04L159.92 0.04Q157.20 0.96 154.24 0.96L154.24 0.96L154.24 0.96Q148.24 0.96 144.76-2.96L144.76-2.96L144.76-2.96Q141.28-6.88 141.28-14.32L141.28-14.32L141.28-33.84L134.08-33.84L134.08-40.08L141.44-40.08" fill="#ff0000" stroke="none" stroke-width="none" transform="translate(-1314.6400146484375,21.70854482343121)" style="fill: rgb(255, 0, 0);"></path></g><g class="path" style="transform: scale(0.91); transform-origin: -1127.28px 0.908545px; animation: 1s linear -0.606774s infinite normal forwards running breath-9f59ce65-b751-4933-a246-1573cb4f95ef;"><path d="M200.72-20.80L200.72-20.80L200.72-20.80Q200.72-23.92 199.72-26.72L199.72-26.72L199.72-26.72Q198.72-29.52 196.92-31.60L196.92-31.60L196.92-31.60Q195.12-33.68 192.68-34.92L192.68-34.92L192.68-34.92Q190.24-36.16 187.36-36.16L187.36-36.16L187.36-36.16Q181.04-36.16 177.52-32L177.52-32L177.52-32Q174-27.84 174-20.96L174-20.96L174-20.96Q174-17.84 175-15L175-15L175-15Q176-12.16 177.80-10.04L177.80-10.04L177.80-10.04Q179.60-7.92 182.04-6.68L182.04-6.68L182.04-6.68Q184.48-5.44 187.36-5.44L187.36-5.44L187.36-5.44Q190.48-5.44 192.96-6.56L192.96-6.56L192.96-6.56Q195.44-7.68 197.16-9.72L197.16-9.72L197.16-9.72Q198.88-11.76 199.80-14.56L199.80-14.56L199.80-14.56Q200.72-17.36 200.72-20.80zM166.64-20.80L166.64-20.80L166.64-20.80Q166.64-25.84 168.24-29.88L168.24-29.88L168.24-29.88Q169.84-33.92 172.60-36.72L172.60-36.72L172.60-36.72Q175.36-39.52 179.16-41.04L179.16-41.04L179.16-41.04Q182.96-42.56 187.36-42.56L187.36-42.56L187.36-42.56Q191.68-42.56 195.48-41.04L195.48-41.04L195.48-41.04Q199.28-39.52 202.08-36.72L202.08-36.72L202.08-36.72Q204.88-33.92 206.48-29.92L206.48-29.92L206.48-29.92Q208.08-25.92 208.08-20.96L208.08-20.96L208.08-20.96Q208.08-16 206.52-11.96L206.52-11.96L206.52-11.96Q204.96-7.92 202.16-5.04L202.16-5.04L202.16-5.04Q199.36-2.16 195.56-0.60L195.56-0.60L195.56-0.60Q191.76 0.96 187.36 0.96L187.36 0.96L187.36 0.96Q182.88 0.96 179.08-0.64L179.08-0.64L179.08-0.64Q175.28-2.24 172.52-5.12L172.52-5.12L172.52-5.12Q169.76-8 168.20-12L168.20-12L168.20-12Q166.64-16 166.64-20.80" fill="#ff0000" stroke="none" stroke-width="none" transform="translate(-1314.6400146484375,21.70854482343121)" style="fill: rgb(255, 0, 0);"></path></g><g class="path" style="transform: scale(0.91); transform-origin: -1066.56px 0.428545px; animation: 1s linear -0.596129s infinite normal forwards running breath-9f59ce65-b751-4933-a246-1573cb4f95ef;"><path d="M224.64-41.60L224.64-34.64L224.64-34.64Q226.88-38 230.28-40.28L230.28-40.28L230.28-40.28Q233.68-42.56 238.16-42.56L238.16-42.56L238.16-42.56Q243.12-42.56 246.24-40.20L246.24-40.20L246.24-40.20Q249.36-37.84 250.72-33.76L250.72-33.76L250.72-33.76Q253.20-37.44 256.60-40L256.60-40L256.60-40Q260-42.56 265.04-42.56L265.04-42.56L265.04-42.56Q268.40-42.56 270.92-41.44L270.92-41.44L270.92-41.44Q273.44-40.32 275.12-38.28L275.12-38.28L275.12-38.28Q276.80-36.24 277.64-33.40L277.64-33.40L277.64-33.40Q278.48-30.56 278.48-27.12L278.48-27.12L278.48 0L271.28 0L271.28-26.56L271.28-26.56Q271.28-30.88 269.28-33.56L269.28-33.56L269.28-33.56Q267.28-36.24 263.76-36.24L263.76-36.24L263.76-36.24Q261.92-36.24 260.24-35.52L260.24-35.52L260.24-35.52Q258.56-34.80 257.04-33.56L257.04-33.56L257.04-33.56Q255.52-32.32 254.16-30.68L254.16-30.68L254.16-30.68Q252.80-29.04 251.68-27.28L251.68-27.28L251.68 0L244.48 0L244.48-26.56L244.48-26.56Q244.48-30.88 242.48-33.56L242.48-33.56L242.48-33.56Q240.48-36.24 236.96-36.24L236.96-36.24L236.96-36.24Q235.20-36.24 233.52-35.56L233.52-35.56L233.52-35.56Q231.84-34.88 230.28-33.68L230.28-33.68L230.28-33.68Q228.72-32.48 227.36-30.88L227.36-30.88L227.36-30.88Q226-29.28 224.88-27.52L224.88-27.52L224.88 0L217.68 0L217.68-41.60L224.64-41.60" fill="#ff0000" stroke="none" stroke-width="none" transform="translate(-1314.6400146484375,21.70854482343121)" style="fill: rgb(255, 0, 0);"></path></g><g class="path" style="transform: scale(0.91); transform-origin: -1008.2px 0.908545px; animation: 1s linear -0.585484s infinite normal forwards running breath-9f59ce65-b751-4933-a246-1573cb4f95ef;"><path d="M324.56-17.84L295.44-17.84L295.44-17.84Q296.16-12 299.52-8.72L299.52-8.72L299.52-8.72Q302.88-5.44 308.40-5.44L308.40-5.44L308.40-5.44Q312-5.44 314.88-6.20L314.88-6.20L314.88-6.20Q317.76-6.96 320.40-8.16L320.40-8.16L322.08-2L322.08-2Q319.20-0.64 315.60 0.16L315.60 0.16L315.60 0.16Q312 0.96 307.52 0.96L307.52 0.96L307.52 0.96Q303.04 0.96 299.44-0.52L299.44-0.52L299.44-0.52Q295.84-2 293.32-4.76L293.32-4.76L293.32-4.76Q290.80-7.52 289.44-11.56L289.44-11.56L289.44-11.56Q288.08-15.60 288.08-20.80L288.08-20.80L288.08-20.80Q288.08-25.44 289.44-29.44L289.44-29.44L289.44-29.44Q290.80-33.44 293.28-36.36L293.28-36.36L293.28-36.36Q295.76-39.28 299.20-40.92L299.20-40.92L299.20-40.92Q302.64-42.56 306.88-42.56L306.88-42.56L306.88-42.56Q311.36-42.56 314.72-41.04L314.72-41.04L314.72-41.04Q318.08-39.52 320.32-36.88L320.32-36.88L320.32-36.88Q322.56-34.24 323.68-30.72L323.68-30.72L323.68-30.72Q324.80-27.20 324.80-23.28L324.80-23.28L324.80-23.28Q324.80-20.48 324.56-17.84L324.56-17.84zM306.72-36.32L306.72-36.32L306.72-36.32Q302-36.32 299-33.12L299-33.12L299-33.12Q296-29.92 295.36-23.68L295.36-23.68L318.16-23.68L318.16-23.68Q318.16-29.76 315.12-33.04L315.12-33.04L315.12-33.04Q312.08-36.32 306.72-36.32" fill="#ff0000" stroke="none" stroke-width="none" transform="translate(-1314.6400146484375,21.70854482343121)" style="fill: rgb(255, 0, 0);"></path></g><g class="path" style="transform: scale(0.91); transform-origin: -967.88px 0.428545px; animation: 1s linear -0.574839s infinite normal forwards running breath-9f59ce65-b751-4933-a246-1573cb4f95ef;"><path d="M359.12-42.08L356.96-34.64L356.96-34.64Q355.44-35.28 353.36-35.28L353.36-35.28L353.36-35.28Q351.12-35.28 349-34.32L349-34.32L349-34.32Q346.88-33.36 345.24-31.44L345.24-31.44L345.24-31.44Q343.60-29.52 342.60-26.52L342.60-26.52L342.60-26.52Q341.60-23.52 341.60-19.44L341.60-19.44L341.60 0L334.40 0L334.40-41.60L341.36-41.60L341.36-32.56L341.36-32.56Q342.08-34.48 343.28-36.32L343.28-36.32L343.28-36.32Q344.48-38.16 346.12-39.52L346.12-39.52L346.12-39.52Q347.76-40.88 349.92-41.72L349.92-41.72L349.92-41.72Q352.08-42.56 354.72-42.56L354.72-42.56L354.72-42.56Q355.92-42.56 357.08-42.44L357.08-42.44L357.08-42.44Q358.24-42.32 359.12-42.08L359.12-42.08" fill="#ff0000" stroke="none" stroke-width="none" transform="translate(-1314.6400146484375,21.70854482343121)" style="fill: rgb(255, 0, 0);"></path></g><g class="path" style="transform: scale(0.91); transform-origin: -938.2px 0.908545px; animation: 1s linear -0.564194s infinite normal forwards running breath-9f59ce65-b751-4933-a246-1573cb4f95ef;"><path d="M360.72-3.36L363.76-9.36L363.76-9.36Q365.84-7.52 369-6.40L369-6.40L369-6.40Q372.16-5.28 375.76-5.28L375.76-5.28L375.76-5.28Q380.24-5.28 382.52-6.76L382.52-6.76L382.52-6.76Q384.80-8.24 384.80-10.56L384.80-10.56L384.80-10.56Q384.80-11.76 384.36-12.80L384.36-12.80L384.36-12.80Q383.92-13.84 382.76-14.80L382.76-14.80L382.76-14.80Q381.60-15.76 379.60-16.68L379.60-16.68L379.60-16.68Q377.60-17.60 374.40-18.72L374.40-18.72L374.40-18.72Q368.48-20.72 365.60-23.48L365.60-23.48L365.60-23.48Q362.72-26.24 362.72-31.12L362.72-31.12L362.72-31.12Q362.72-33.52 363.80-35.60L363.80-35.60L363.80-35.60Q364.88-37.68 366.92-39.24L366.92-39.24L366.92-39.24Q368.96-40.80 371.88-41.68L371.88-41.68L371.88-41.68Q374.80-42.56 378.56-42.56L378.56-42.56L378.56-42.56Q382.64-42.56 385.72-41.72L385.72-41.72L385.72-41.72Q388.80-40.88 391.28-39.60L391.28-39.60L389.28-33.68L389.28-33.68Q387.12-34.96 384.36-35.76L384.36-35.76L384.36-35.76Q381.60-36.56 378.24-36.56L378.24-36.56L378.24-36.56Q374.08-36.56 371.92-34.88L371.92-34.88L371.92-34.88Q369.76-33.20 369.76-31.20L369.76-31.20L369.76-31.20Q369.76-30.24 370.12-29.44L370.12-29.44L370.12-29.44Q370.48-28.64 371.44-27.92L371.44-27.92L371.44-27.92Q372.40-27.20 374-26.48L374-26.48L374-26.48Q375.60-25.76 378-24.96L378-24.96L378-24.96Q381.92-23.60 384.64-22.20L384.64-22.20L384.64-22.20Q387.36-20.80 389.04-19.12L389.04-19.12L389.04-19.12Q390.72-17.44 391.44-15.48L391.44-15.48L391.44-15.48Q392.16-13.52 392.16-11.12L392.16-11.12L392.16-11.12Q392.16-8.32 390.96-6.08L390.96-6.08L390.96-6.08Q389.76-3.84 387.60-2.28L387.60-2.28L387.60-2.28Q385.44-0.72 382.36 0.12L382.36 0.12L382.36 0.12Q379.28 0.96 375.52 0.96L375.52 0.96L375.52 0.96Q370.72 0.96 366.96-0.24L366.96-0.24L366.96-0.24Q363.20-1.44 360.72-3.36L360.72-3.36" fill="#ff0000" stroke="none" stroke-width="none" transform="translate(-1314.6400146484375,21.70854482343121)" style="fill: rgb(255, 0, 0);"></path></g><g class="path" style="transform: scale(0.91); transform-origin: -862.56px 0.708546px; animation: 1s linear -0.553548s infinite normal forwards running breath-9f59ce65-b751-4933-a246-1573cb4f95ef;"><path d="M465.76-8.16L476.40-42L482.80-39.68L469.60 0L461.68 0L452.08-30.96L442.40 0L434.48 0L421.36-39.68L428-42L438.72-8.16L448.48-38.64L456.24-38.64L465.76-8.16" fill="#ff0000" stroke="none" stroke-width="none" transform="translate(-1314.6400146484375,21.70854482343121)" style="fill: rgb(255, 0, 0);"></path></g><g class="path" style="transform: scale(0.91); transform-origin: -805.96px -7.89145px; animation: 1s linear -0.542903s infinite normal forwards running breath-9f59ce65-b751-4933-a246-1573cb4f95ef;"><path d="M498.40-59.20L498.40-34.96L498.40-34.96Q500.64-38.24 504.04-40.40L504.04-40.40L504.04-40.40Q507.44-42.56 512.16-42.56L512.16-42.56L512.16-42.56Q519.20-42.56 522.68-38.32L522.68-38.32L522.68-38.32Q526.16-34.08 526.16-27.12L526.16-27.12L526.16 0L518.96 0L518.96-26.32L518.96-26.32Q518.96-30.88 516.92-33.56L516.92-33.56L516.92-33.56Q514.88-36.24 511.04-36.24L511.04-36.24L511.04-36.24Q509.20-36.24 507.40-35.56L507.40-35.56L507.40-35.56Q505.60-34.88 504-33.68L504-33.68L504-33.68Q502.40-32.48 500.96-30.88L500.96-30.88L500.96-30.88Q499.52-29.28 498.40-27.52L498.40-27.52L498.40 0L491.20 0L491.20-59.20L498.40-59.20" fill="#ff0000" stroke="none" stroke-width="none" transform="translate(-1314.6400146484375,21.70854482343121)" style="fill: rgb(255, 0, 0);"></path></g><g class="path" style="transform: scale(0.91); transform-origin: -758.56px 0.908545px; animation: 1s linear -0.532258s infinite normal forwards running breath-9f59ce65-b751-4933-a246-1573cb4f95ef;"><path d="M569.44-20.80L569.44-20.80L569.44-20.80Q569.44-23.92 568.44-26.72L568.44-26.72L568.44-26.72Q567.44-29.52 565.64-31.60L565.64-31.60L565.64-31.60Q563.84-33.68 561.40-34.92L561.40-34.92L561.40-34.92Q558.96-36.16 556.08-36.16L556.08-36.16L556.08-36.16Q549.76-36.16 546.24-32L546.24-32L546.24-32Q542.72-27.84 542.72-20.96L542.72-20.96L542.72-20.96Q542.72-17.84 543.72-15L543.72-15L543.72-15Q544.72-12.16 546.52-10.04L546.52-10.04L546.52-10.04Q548.32-7.92 550.76-6.68L550.76-6.68L550.76-6.68Q553.20-5.44 556.08-5.44L556.08-5.44L556.08-5.44Q559.20-5.44 561.68-6.56L561.68-6.56L561.68-6.56Q564.16-7.68 565.88-9.72L565.88-9.72L565.88-9.72Q567.60-11.76 568.52-14.56L568.52-14.56L568.52-14.56Q569.44-17.36 569.44-20.80zM535.36-20.80L535.36-20.80L535.36-20.80Q535.36-25.84 536.96-29.88L536.96-29.88L536.96-29.88Q538.56-33.92 541.32-36.72L541.32-36.72L541.32-36.72Q544.08-39.52 547.88-41.04L547.88-41.04L547.88-41.04Q551.68-42.56 556.08-42.56L556.08-42.56L556.08-42.56Q560.40-42.56 564.20-41.04L564.20-41.04L564.20-41.04Q568-39.52 570.80-36.72L570.80-36.72L570.80-36.72Q573.60-33.92 575.20-29.92L575.20-29.92L575.20-29.92Q576.80-25.92 576.80-20.96L576.80-20.96L576.80-20.96Q576.80-16 575.24-11.96L575.24-11.96L575.24-11.96Q573.68-7.92 570.88-5.04L570.88-5.04L570.88-5.04Q568.08-2.16 564.28-0.60L564.28-0.60L564.28-0.60Q560.48 0.96 556.08 0.96L556.08 0.96L556.08 0.96Q551.60 0.96 547.80-0.64L547.80-0.64L547.80-0.64Q544-2.24 541.24-5.12L541.24-5.12L541.24-5.12Q538.48-8 536.92-12L536.92-12L536.92-12Q535.36-16 535.36-20.80" fill="#ff0000" stroke="none" stroke-width="none" transform="translate(-1314.6400146484375,21.70854482343121)" style="fill: rgb(255, 0, 0);"></path></g><g class="path" style="transform: scale(0.91); transform-origin: -692.12px 0.908545px; animation: 1s linear -0.521613s infinite normal forwards running breath-9f59ce65-b751-4933-a246-1573cb4f95ef;"><path d="M606.80-3.36L609.84-9.36L609.84-9.36Q611.92-7.52 615.08-6.40L615.08-6.40L615.08-6.40Q618.24-5.28 621.84-5.28L621.84-5.28L621.84-5.28Q626.32-5.28 628.60-6.76L628.60-6.76L628.60-6.76Q630.88-8.24 630.88-10.56L630.88-10.56L630.88-10.56Q630.88-11.76 630.44-12.80L630.44-12.80L630.44-12.80Q630-13.84 628.84-14.80L628.84-14.80L628.84-14.80Q627.68-15.76 625.68-16.68L625.68-16.68L625.68-16.68Q623.68-17.60 620.48-18.72L620.48-18.72L620.48-18.72Q614.56-20.72 611.68-23.48L611.68-23.48L611.68-23.48Q608.80-26.24 608.80-31.12L608.80-31.12L608.80-31.12Q608.80-33.52 609.88-35.60L609.88-35.60L609.88-35.60Q610.96-37.68 613-39.24L613-39.24L613-39.24Q615.04-40.80 617.96-41.68L617.96-41.68L617.96-41.68Q620.88-42.56 624.64-42.56L624.64-42.56L624.64-42.56Q628.72-42.56 631.80-41.72L631.80-41.72L631.80-41.72Q634.88-40.88 637.36-39.60L637.36-39.60L635.36-33.68L635.36-33.68Q633.20-34.96 630.44-35.76L630.44-35.76L630.44-35.76Q627.68-36.56 624.32-36.56L624.32-36.56L624.32-36.56Q620.16-36.56 618-34.88L618-34.88L618-34.88Q615.84-33.20 615.84-31.20L615.84-31.20L615.84-31.20Q615.84-30.24 616.20-29.44L616.20-29.44L616.20-29.44Q616.56-28.64 617.52-27.92L617.52-27.92L617.52-27.92Q618.48-27.20 620.08-26.48L620.08-26.48L620.08-26.48Q621.68-25.76 624.08-24.96L624.08-24.96L624.08-24.96Q628-23.60 630.72-22.20L630.72-22.20L630.72-22.20Q633.44-20.80 635.12-19.12L635.12-19.12L635.12-19.12Q636.80-17.44 637.52-15.48L637.52-15.48L637.52-15.48Q638.24-13.52 638.24-11.12L638.24-11.12L638.24-11.12Q638.24-8.32 637.04-6.08L637.04-6.08L637.04-6.08Q635.84-3.84 633.68-2.28L633.68-2.28L633.68-2.28Q631.52-0.72 628.44 0.12L628.44 0.12L628.44 0.12Q625.36 0.96 621.60 0.96L621.60 0.96L621.60 0.96Q616.80 0.96 613.04-0.24L613.04-0.24L613.04-0.24Q609.28-1.44 606.80-3.36L606.80-3.36" fill="#ff0000" stroke="none" stroke-width="none" transform="translate(-1314.6400146484375,21.70854482343121)" style="fill: rgb(255, 0, 0);"></path></g><g class="path" style="transform: scale(0.91); transform-origin: -650.08px 9.22855px; animation: 1s linear -0.510968s infinite normal forwards running breath-9f59ce65-b751-4933-a246-1573cb4f95ef;"><path d="M643.44-36L644.96-41.60L644.96-41.60Q652.32-41.60 654.16-35.76L654.16-35.76L654.16-35.76Q654.72-36.64 655.88-37.84L655.88-37.84L655.88-37.84Q657.04-39.04 658.72-40.08L658.72-40.08L658.72-40.08Q660.40-41.12 662.56-41.84L662.56-41.84L662.56-41.84Q664.72-42.56 667.36-42.56L667.36-42.56L667.36-42.56Q670.96-42.56 674.28-41.12L674.28-41.12L674.28-41.12Q677.60-39.68 680.12-36.96L680.12-36.96L680.12-36.96Q682.64-34.24 684.16-30.24L684.16-30.24L684.16-30.24Q685.68-26.24 685.68-21.20L685.68-21.20L685.68-21.20Q685.68-16.24 684.20-12.16L684.20-12.16L684.20-12.16Q682.72-8.08 680.20-5.16L680.20-5.16L680.20-5.16Q677.68-2.24 674.40-0.64L674.40-0.64L674.40-0.64Q671.12 0.96 667.52 0.96L667.52 0.96L667.52 0.96Q663.76 0.96 660.60-0.52L660.60-0.52L660.60-0.52Q657.44-2 655.36-3.92L655.36-3.92L655.36 17.60L648.16 17.60L648.16-30.96L648.16-30.96Q648.16-33.68 646.84-34.84L646.84-34.84L646.84-34.84Q645.52-36 643.44-36L643.44-36zM678.32-20.96L678.32-20.96L678.32-20.96Q678.32-24.56 677.32-27.40L677.32-27.40L677.32-27.40Q676.32-30.24 674.60-32.24L674.60-32.24L674.60-32.24Q672.88-34.24 670.60-35.28L670.60-35.28L670.60-35.28Q668.32-36.32 665.76-36.32L665.76-36.32L665.76-36.32Q662.32-36.32 659.56-34.60L659.56-34.60L659.56-34.60Q656.80-32.88 655.36-30.88L655.36-30.88L655.36-10.40L655.36-10.40Q657.44-8.24 660.12-6.84L660.12-6.84L660.12-6.84Q662.80-5.44 666.08-5.44L666.08-5.44L666.08-5.44Q668.80-5.44 671.04-6.56L671.04-6.56L671.04-6.56Q673.28-7.68 674.92-9.72L674.92-9.72L674.92-9.72Q676.56-11.76 677.44-14.60L677.44-14.60L677.44-14.60Q678.32-17.44 678.32-20.96" fill="#ff0000" stroke="none" stroke-width="none" transform="translate(-1314.6400146484375,21.70854482343121)" style="fill: rgb(255, 0, 0);"></path></g><g class="path" style="transform: scale(0.91); transform-origin: -603.4px 0.908545px; animation: 1s linear -0.500323s infinite normal forwards running breath-9f59ce65-b751-4933-a246-1573cb4f95ef;"><path d="M729.36-17.84L700.24-17.84L700.24-17.84Q700.96-12 704.32-8.72L704.32-8.72L704.32-8.72Q707.68-5.44 713.20-5.44L713.20-5.44L713.20-5.44Q716.80-5.44 719.68-6.20L719.68-6.20L719.68-6.20Q722.56-6.96 725.20-8.16L725.20-8.16L726.88-2L726.88-2Q724-0.64 720.40 0.16L720.40 0.16L720.40 0.16Q716.80 0.96 712.32 0.96L712.32 0.96L712.32 0.96Q707.84 0.96 704.24-0.52L704.24-0.52L704.24-0.52Q700.64-2 698.12-4.76L698.12-4.76L698.12-4.76Q695.60-7.52 694.24-11.56L694.24-11.56L694.24-11.56Q692.88-15.60 692.88-20.80L692.88-20.80L692.88-20.80Q692.88-25.44 694.24-29.44L694.24-29.44L694.24-29.44Q695.60-33.44 698.08-36.36L698.08-36.36L698.08-36.36Q700.56-39.28 704-40.92L704-40.92L704-40.92Q707.44-42.56 711.68-42.56L711.68-42.56L711.68-42.56Q716.16-42.56 719.52-41.04L719.52-41.04L719.52-41.04Q722.88-39.52 725.12-36.88L725.12-36.88L725.12-36.88Q727.36-34.24 728.48-30.72L728.48-30.72L728.48-30.72Q729.60-27.20 729.60-23.28L729.60-23.28L729.60-23.28Q729.60-20.48 729.36-17.84L729.36-17.84zM711.52-36.32L711.52-36.32L711.52-36.32Q706.80-36.32 703.80-33.12L703.80-33.12L703.80-33.12Q700.80-29.92 700.16-23.68L700.16-23.68L722.96-23.68L722.96-23.68Q722.96-29.76 719.92-33.04L719.92-33.04L719.92-33.04Q716.88-36.32 711.52-36.32" fill="#ff0000" stroke="none" stroke-width="none" transform="translate(-1314.6400146484375,21.70854482343121)" style="fill: rgb(255, 0, 0);"></path></g><g class="path" style="transform: scale(0.91); transform-origin: -557.96px 0.428545px; animation: 1s linear -0.489677s infinite normal forwards running breath-9f59ce65-b751-4933-a246-1573cb4f95ef;"><path d="M746.16-41.60L746.16-34.64L746.16-34.64Q748.40-38 751.88-40.28L751.88-40.28L751.88-40.28Q755.36-42.56 760.16-42.56L760.16-42.56L760.16-42.56Q767.20-42.56 770.68-38.32L770.68-38.32L770.68-38.32Q774.16-34.08 774.16-27.12L774.16-27.12L774.16 0L766.96 0L766.96-26.32L766.96-26.32Q766.96-30.88 764.88-33.56L764.88-33.56L764.88-33.56Q762.80-36.24 758.96-36.24L758.96-36.24L758.96-36.24Q757.12-36.24 755.36-35.56L755.36-35.56L755.36-35.56Q753.60-34.88 751.96-33.68L751.96-33.68L751.96-33.68Q750.32-32.48 748.92-30.88L748.92-30.88L748.92-30.88Q747.52-29.28 746.40-27.52L746.40-27.52L746.40 0L739.20 0L739.20-41.60L746.16-41.60" fill="#ff0000" stroke="none" stroke-width="none" transform="translate(-1314.6400146484375,21.70854482343121)" style="fill: rgb(255, 0, 0);"></path></g><g class="path" style="transform: scale(0.91); transform-origin: -509.76px -7.41146px; animation: 1s linear -0.479032s infinite normal forwards running breath-9f59ce65-b751-4933-a246-1573cb4f95ef;"><path d="M802.32 0.96L802.32 0.96L802.32 0.96Q798.48 0.96 795.08-0.56L795.08-0.56L795.08-0.56Q791.68-2.08 789.16-4.88L789.16-4.88L789.16-4.88Q786.64-7.68 785.20-11.64L785.20-11.64L785.20-11.64Q783.76-15.60 783.76-20.56L783.76-20.56L783.76-20.56Q783.76-25.28 785.24-29.32L785.24-29.32L785.24-29.32Q786.72-33.36 789.24-36.28L789.24-36.28L789.24-36.28Q791.76-39.20 795.12-40.88L795.12-40.88L795.12-40.88Q798.48-42.56 802.24-42.56L802.24-42.56L802.24-42.56Q806.40-42.56 809.40-40.88L809.40-40.88L809.40-40.88Q812.40-39.20 814.08-37.44L814.08-37.44L814.08-59.20L821.28-59.20L821.28-10.08L821.28-10.08Q821.28-7.04 822.76-6.12L822.76-6.12L822.76-6.12Q824.24-5.20 826-5.20L826-5.20L824.48 0.40L824.48 0.40Q816.88 0.40 815.20-5.68L815.20-5.68L815.20-5.68Q813.36-3.12 810.24-1.08L810.24-1.08L810.24-1.08Q807.12 0.96 802.32 0.96zM803.92-5.44L803.92-5.44L803.92-5.44Q806.88-5.44 809.56-6.84L809.56-6.84L809.56-6.84Q812.24-8.24 814.08-10.48L814.08-10.48L814.08-31.12L814.08-31.12Q812.56-33.04 809.88-34.68L809.88-34.68L809.88-34.68Q807.20-36.32 803.84-36.32L803.84-36.32L803.84-36.32Q800.96-36.32 798.60-35.12L798.60-35.12L798.60-35.12Q796.24-33.92 794.56-31.84L794.56-31.84L794.56-31.84Q792.88-29.76 792-26.92L792-26.92L792-26.92Q791.12-24.08 791.12-20.80L791.12-20.80L791.12-20.80Q791.12-17.44 792.08-14.64L792.08-14.64L792.08-14.64Q793.04-11.84 794.76-9.80L794.76-9.80L794.76-9.80Q796.48-7.76 798.84-6.60L798.84-6.60L798.84-6.60Q801.20-5.44 803.92-5.44" fill="#ff0000" stroke="none" stroke-width="none" transform="translate(-1314.6400146484375,21.70854482343121)" style="fill: rgb(255, 0, 0);"></path></g><g class="path" style="transform: scale(0.91); transform-origin: -438.24px -6.77145px; animation: 1s linear -0.468387s infinite normal forwards running breath-9f59ce65-b751-4933-a246-1573cb4f95ef;"><path d="M892.72 0L860.24 0L860.24 0Q860.00-1.44 860.00-2.96L860.00-2.96L860.00-2.96Q860.00-8.08 861.88-12.24L861.88-12.24L861.88-12.24Q863.76-16.40 866.56-19.80L866.56-19.80L866.56-19.80Q869.36-23.20 872.60-26.12L872.60-26.12L872.60-26.12Q875.84-29.04 878.64-31.72L878.64-31.72L878.64-31.72Q881.44-34.40 883.32-37.08L883.32-37.08L883.32-37.08Q885.20-39.76 885.20-42.80L885.20-42.80L885.20-42.80Q885.20-46.16 882.72-48.36L882.72-48.36L882.72-48.36Q880.24-50.56 876.32-50.56L876.32-50.56L876.32-50.56Q872.96-50.56 870.20-49.24L870.20-49.24L870.20-49.24Q867.44-47.92 865.04-45.68L865.04-45.68L861.04-50.56L861.04-50.56Q864.24-53.44 868.12-55.20L868.12-55.20L868.12-55.20Q872.00-56.96 877.12-56.96L877.12-56.96L877.12-56.96Q880.64-56.96 883.56-55.92L883.56-55.92L883.56-55.92Q886.48-54.88 888.52-53L888.52-53L888.52-53Q890.56-51.12 891.68-48.64L891.68-48.64L891.68-48.64Q892.80-46.16 892.80-43.28L892.80-43.28L892.80-43.28Q892.80-39.44 891.08-36.20L891.08-36.20L891.08-36.20Q889.36-32.96 886.76-30.04L886.76-30.04L886.76-30.04Q884.16-27.12 881.08-24.44L881.08-24.44L881.08-24.44Q878.00-21.76 875.28-18.96L875.28-18.96L875.28-18.96Q872.56-16.16 870.52-13.12L870.52-13.12L870.52-13.12Q868.48-10.08 868.08-6.56L868.08-6.56L892.72-6.56L892.72 0" fill="#ff0000" stroke="none" stroke-width="none" transform="translate(-1314.6400146484375,21.70854482343121)" style="fill: rgb(255, 0, 0);"></path></g><g class="path" style="transform: scale(0.91); transform-origin: -389.44px -6.29145px; animation: 1s linear -0.457742s infinite normal forwards running breath-9f59ce65-b751-4933-a246-1573cb4f95ef;"><path d="M925.28-56.96L925.28-56.96L925.28-56.96Q929.92-56.96 933.52-55L933.52-55L933.52-55Q937.12-53.04 939.52-49.32L939.52-49.32L939.52-49.32Q941.92-45.60 943.16-40.20L943.16-40.20L943.16-40.20Q944.40-34.80 944.40-27.92L944.40-27.92L944.40-27.92Q944.40-14 939.44-6.52L939.44-6.52L939.44-6.52Q934.48 0.96 925.12 0.96L925.12 0.96L925.12 0.96Q915.76 0.96 910.88-6.64L910.88-6.64L910.88-6.64Q906.00-14.24 906.00-28.08L906.00-28.08L906.00-28.08Q906.00-42 910.96-49.48L910.96-49.48L910.96-49.48Q915.92-56.96 925.28-56.96zM925.20-50.40L925.20-50.40L925.20-50.40Q922.56-50.40 920.40-49.24L920.40-49.24L920.40-49.24Q918.24-48.08 916.72-45.48L916.72-45.48L916.72-45.48Q915.20-42.88 914.40-38.64L914.40-38.64L914.40-38.64Q913.60-34.40 913.60-28.16L913.60-28.16L913.60-28.16Q913.60-17.04 916.64-11.32L916.64-11.32L916.64-11.32Q919.68-5.60 925.20-5.60L925.20-5.60L925.20-5.60Q927.84-5.60 930.00-6.76L930.00-6.76L930.00-6.76Q932.16-7.92 933.68-10.52L933.68-10.52L933.68-10.52Q935.20-13.12 936.00-17.36L936.00-17.36L936.00-17.36Q936.80-21.60 936.80-27.84L936.80-27.84L936.80-27.84Q936.80-38.96 933.76-44.68L933.76-44.68L933.76-44.68Q930.72-50.40 925.20-50.40" fill="#ff0000" stroke="none" stroke-width="none" transform="translate(-1314.6400146484375,21.70854482343121)" style="fill: rgb(255, 0, 0);"></path></g><g class="path" style="transform: scale(0.91); transform-origin: -316.72px -7.41146px; animation: 1s linear -0.447097s infinite normal forwards running breath-9f59ce65-b751-4933-a246-1573cb4f95ef;"><path d="M995.36 0.96L995.36 0.96L995.36 0.96Q991.52 0.96 988.12-0.56L988.12-0.56L988.12-0.56Q984.72-2.08 982.20-4.88L982.20-4.88L982.20-4.88Q979.68-7.68 978.24-11.64L978.24-11.64L978.24-11.64Q976.80-15.60 976.80-20.56L976.80-20.56L976.80-20.56Q976.80-25.28 978.28-29.32L978.28-29.32L978.28-29.32Q979.76-33.36 982.28-36.28L982.28-36.28L982.28-36.28Q984.80-39.20 988.16-40.88L988.16-40.88L988.16-40.88Q991.52-42.56 995.28-42.56L995.28-42.56L995.28-42.56Q999.44-42.56 1002.44-40.88L1002.44-40.88L1002.44-40.88Q1005.44-39.20 1007.12-37.44L1007.12-37.44L1007.12-59.20L1014.32-59.20L1014.32-10.08L1014.32-10.08Q1014.32-7.04 1015.80-6.12L1015.80-6.12L1015.80-6.12Q1017.28-5.20 1019.04-5.20L1019.04-5.20L1017.52 0.40L1017.52 0.40Q1009.92 0.40 1008.24-5.68L1008.24-5.68L1008.24-5.68Q1006.40-3.12 1003.28-1.08L1003.28-1.08L1003.28-1.08Q1000.16 0.96 995.36 0.96zM996.96-5.44L996.96-5.44L996.96-5.44Q999.92-5.44 1002.60-6.84L1002.60-6.84L1002.60-6.84Q1005.28-8.24 1007.12-10.48L1007.12-10.48L1007.12-31.12L1007.12-31.12Q1005.60-33.04 1002.92-34.68L1002.92-34.68L1002.92-34.68Q1000.24-36.32 996.88-36.32L996.88-36.32L996.88-36.32Q994.00-36.32 991.64-35.12L991.64-35.12L991.64-35.12Q989.28-33.92 987.60-31.84L987.60-31.84L987.60-31.84Q985.92-29.76 985.04-26.92L985.04-26.92L985.04-26.92Q984.16-24.08 984.16-20.80L984.16-20.80L984.16-20.80Q984.16-17.44 985.12-14.64L985.12-14.64L985.12-14.64Q986.08-11.84 987.80-9.80L987.80-9.80L987.80-9.80Q989.52-7.76 991.88-6.60L991.88-6.60L991.88-6.60Q994.24-5.44 996.96-5.44" fill="#ff0000" stroke="none" stroke-width="none" transform="translate(-1314.6400146484375,21.70854482343121)" style="fill: rgb(255, 0, 0);"></path></g><g class="path" style="transform: scale(0.91); transform-origin: -269.28px 0.908545px; animation: 1s linear -0.436452s infinite normal forwards running breath-9f59ce65-b751-4933-a246-1573cb4f95ef;"><path d="M1058.72-20.80L1058.72-20.80L1058.72-20.80Q1058.72-23.92 1057.72-26.72L1057.72-26.72L1057.72-26.72Q1056.72-29.52 1054.92-31.60L1054.92-31.60L1054.92-31.60Q1053.12-33.68 1050.68-34.92L1050.68-34.92L1050.68-34.92Q1048.24-36.16 1045.36-36.16L1045.36-36.16L1045.36-36.16Q1039.04-36.16 1035.52-32L1035.52-32L1035.52-32Q1032-27.84 1032-20.96L1032-20.96L1032-20.96Q1032-17.84 1033-15L1033-15L1033-15Q1034-12.16 1035.80-10.04L1035.80-10.04L1035.80-10.04Q1037.60-7.92 1040.04-6.68L1040.04-6.68L1040.04-6.68Q1042.48-5.44 1045.36-5.44L1045.36-5.44L1045.36-5.44Q1048.48-5.44 1050.96-6.56L1050.96-6.56L1050.96-6.56Q1053.44-7.68 1055.16-9.72L1055.16-9.72L1055.16-9.72Q1056.88-11.76 1057.80-14.56L1057.80-14.56L1057.80-14.56Q1058.72-17.36 1058.72-20.80zM1024.64-20.80L1024.64-20.80L1024.64-20.80Q1024.64-25.84 1026.24-29.88L1026.24-29.88L1026.24-29.88Q1027.84-33.92 1030.60-36.72L1030.60-36.72L1030.60-36.72Q1033.36-39.52 1037.16-41.04L1037.16-41.04L1037.16-41.04Q1040.96-42.56 1045.36-42.56L1045.36-42.56L1045.36-42.56Q1049.68-42.56 1053.48-41.04L1053.48-41.04L1053.48-41.04Q1057.28-39.52 1060.08-36.72L1060.08-36.72L1060.08-36.72Q1062.88-33.92 1064.48-29.92L1064.48-29.92L1064.48-29.92Q1066.08-25.92 1066.08-20.96L1066.08-20.96L1066.08-20.96Q1066.08-16 1064.52-11.96L1064.52-11.96L1064.52-11.96Q1062.96-7.92 1060.16-5.04L1060.16-5.04L1060.16-5.04Q1057.36-2.16 1053.56-0.60L1053.56-0.60L1053.56-0.60Q1049.76 0.96 1045.36 0.96L1045.36 0.96L1045.36 0.96Q1040.88 0.96 1037.08-0.64L1037.08-0.64L1037.08-0.64Q1033.28-2.24 1030.52-5.12L1030.52-5.12L1030.52-5.12Q1027.76-8 1026.20-12L1026.20-12L1026.20-12Q1024.64-16 1024.64-20.80" fill="#ff0000" stroke="none" stroke-width="none" transform="translate(-1314.6400146484375,21.70854482343121)" style="fill: rgb(255, 0, 0);"></path></g><g class="path" style="transform: scale(0.91); transform-origin: -228.72px -7.41146px; animation: 1s linear -0.425806s infinite normal forwards running breath-9f59ce65-b751-4933-a246-1573cb4f95ef;"><path d="M1082.48-59.20L1082.48-13.76L1082.48-13.76Q1082.48-9.44 1084.28-7.36L1084.28-7.36L1084.28-7.36Q1086.08-5.28 1089.28-5.28L1089.28-5.28L1089.28-5.28Q1090.80-5.28 1092.24-5.64L1092.24-5.64L1092.24-5.64Q1093.68-6 1094.80-6.48L1094.80-6.48L1096.56-0.64L1096.56-0.64Q1095.12 0 1093 0.48L1093 0.48L1093 0.48Q1090.88 0.96 1088.32 0.96L1088.32 0.96L1088.32 0.96Q1085.52 0.96 1083.16 0.16L1083.16 0.16L1083.16 0.16Q1080.80-0.64 1079.04-2.32L1079.04-2.32L1079.04-2.32Q1077.28-4 1076.28-6.64L1076.28-6.64L1076.28-6.64Q1075.28-9.28 1075.28-13.04L1075.28-13.04L1075.28-59.20L1082.48-59.20" fill="#ff0000" stroke="none" stroke-width="none" transform="translate(-1314.6400146484375,21.70854482343121)" style="fill: rgb(255, 0, 0);"></path></g><g class="path" style="transform: scale(0.91); transform-origin: -201.84px -7.41146px; animation: 1s linear -0.415161s infinite normal forwards running breath-9f59ce65-b751-4933-a246-1573cb4f95ef;"><path d="M1109.36-59.20L1109.36-13.76L1109.36-13.76Q1109.36-9.44 1111.16-7.36L1111.16-7.36L1111.16-7.36Q1112.96-5.28 1116.16-5.28L1116.16-5.28L1116.16-5.28Q1117.68-5.28 1119.12-5.64L1119.12-5.64L1119.12-5.64Q1120.56-6 1121.68-6.48L1121.68-6.48L1123.44-0.64L1123.44-0.64Q1122 0 1119.88 0.48L1119.88 0.48L1119.88 0.48Q1117.76 0.96 1115.20 0.96L1115.20 0.96L1115.20 0.96Q1112.40 0.96 1110.04 0.16L1110.04 0.16L1110.04 0.16Q1107.68-0.64 1105.92-2.32L1105.92-2.32L1105.92-2.32Q1104.16-4 1103.16-6.64L1103.16-6.64L1103.16-6.64Q1102.16-9.28 1102.16-13.04L1102.16-13.04L1102.16-59.20L1109.36-59.20" fill="#ff0000" stroke="none" stroke-width="none" transform="translate(-1314.6400146484375,21.70854482343121)" style="fill: rgb(255, 0, 0);"></path></g><g class="path" style="transform: scale(0.91); transform-origin: -167.12px 0.908545px; animation: 1s linear -0.404516s infinite normal forwards running breath-9f59ce65-b751-4933-a246-1573cb4f95ef;"><path d="M1126.24-20.56L1126.24-20.56L1126.24-20.56Q1126.24-25.20 1127.68-29.24L1127.68-29.24L1127.68-29.24Q1129.12-33.28 1131.72-36.24L1131.72-36.24L1131.72-36.24Q1134.32-39.20 1137.96-40.88L1137.96-40.88L1137.96-40.88Q1141.60-42.56 1145.92-42.56L1145.92-42.56L1145.92-42.56Q1149.52-42.56 1152.44-41.32L1152.44-41.32L1152.44-41.32Q1155.36-40.08 1157.52-38.24L1157.52-38.24L1157.52-41.60L1164.08-41.60L1164.08-10.08L1164.08-10.08Q1164.08-7.04 1165.56-6.12L1165.56-6.12L1165.56-6.12Q1167.04-5.20 1168.80-5.20L1168.80-5.20L1167.28 0.40L1167.28 0.40Q1159.60 0.40 1158-5.84L1158-5.84L1158-5.84Q1157.04-4.56 1155.80-3.32L1155.80-3.32L1155.80-3.32Q1154.56-2.08 1152.96-1.12L1152.96-1.12L1152.96-1.12Q1151.36-0.16 1149.36 0.40L1149.36 0.40L1149.36 0.40Q1147.36 0.96 1144.96 0.96L1144.96 0.96L1144.96 0.96Q1141.04 0.96 1137.64-0.56L1137.64-0.56L1137.64-0.56Q1134.24-2.08 1131.72-4.88L1131.72-4.88L1131.72-4.88Q1129.20-7.68 1127.72-11.64L1127.72-11.64L1127.72-11.64Q1126.24-15.60 1126.24-20.56zM1146.56-5.44L1146.56-5.44L1146.56-5.44Q1149.60-5.44 1152.32-6.88L1152.32-6.88L1152.32-6.88Q1155.04-8.32 1156.88-10.64L1156.88-10.64L1156.88-32.96L1156.88-32.96Q1154.72-34.48 1152.12-35.40L1152.12-35.40L1152.12-35.40Q1149.52-36.32 1146.64-36.32L1146.64-36.32L1146.64-36.32Q1143.76-36.32 1141.36-35.20L1141.36-35.20L1141.36-35.20Q1138.96-34.08 1137.24-32.04L1137.24-32.04L1137.24-32.04Q1135.52-30 1134.56-27.12L1134.56-27.12L1134.56-27.12Q1133.60-24.24 1133.60-20.80L1133.60-20.80L1133.60-20.80Q1133.60-17.44 1134.56-14.60L1134.56-14.60L1134.56-14.60Q1135.52-11.76 1137.28-9.72L1137.28-9.72L1137.28-9.72Q1139.04-7.68 1141.40-6.56L1141.40-6.56L1141.40-6.56Q1143.76-5.44 1146.56-5.44" fill="#ff0000" stroke="none" stroke-width="none" transform="translate(-1314.6400146484375,21.70854482343121)" style="fill: rgb(255, 0, 0);"></path></g><g class="path" style="transform: scale(0.91); transform-origin: -123.88px 0.428545px; animation: 1s linear -0.393871s infinite normal forwards running breath-9f59ce65-b751-4933-a246-1573cb4f95ef;"><path d="M1203.12-42.08L1200.96-34.64L1200.96-34.64Q1199.44-35.28 1197.36-35.28L1197.36-35.28L1197.36-35.28Q1195.12-35.28 1193-34.32L1193-34.32L1193-34.32Q1190.88-33.36 1189.24-31.44L1189.24-31.44L1189.24-31.44Q1187.60-29.52 1186.60-26.52L1186.60-26.52L1186.60-26.52Q1185.60-23.52 1185.60-19.44L1185.60-19.44L1185.60 0L1178.40 0L1178.40-41.60L1185.36-41.60L1185.36-32.56L1185.36-32.56Q1186.08-34.48 1187.28-36.32L1187.28-36.32L1187.28-36.32Q1188.48-38.16 1190.12-39.52L1190.12-39.52L1190.12-39.52Q1191.76-40.88 1193.92-41.72L1193.92-41.72L1193.92-41.72Q1196.08-42.56 1198.72-42.56L1198.72-42.56L1198.72-42.56Q1199.92-42.56 1201.08-42.44L1201.08-42.44L1201.08-42.44Q1202.24-42.32 1203.12-42.08L1203.12-42.08" fill="#ff0000" stroke="none" stroke-width="none" transform="translate(-1314.6400146484375,21.70854482343121)" style="fill: rgb(255, 0, 0);"></path></g><g class="path" style="transform: scale(0.91); transform-origin: -94.2px 0.908545px; animation: 1s linear -0.383226s infinite normal forwards running breath-9f59ce65-b751-4933-a246-1573cb4f95ef;"><path d="M1204.72-3.36L1207.76-9.36L1207.76-9.36Q1209.84-7.52 1213-6.40L1213-6.40L1213-6.40Q1216.16-5.28 1219.76-5.28L1219.76-5.28L1219.76-5.28Q1224.24-5.28 1226.52-6.76L1226.52-6.76L1226.52-6.76Q1228.80-8.24 1228.80-10.56L1228.80-10.56L1228.80-10.56Q1228.80-11.76 1228.36-12.80L1228.36-12.80L1228.36-12.80Q1227.92-13.84 1226.76-14.80L1226.76-14.80L1226.76-14.80Q1225.60-15.76 1223.60-16.68L1223.60-16.68L1223.60-16.68Q1221.60-17.60 1218.40-18.72L1218.40-18.72L1218.40-18.72Q1212.48-20.72 1209.60-23.48L1209.60-23.48L1209.60-23.48Q1206.72-26.24 1206.72-31.12L1206.72-31.12L1206.72-31.12Q1206.72-33.52 1207.80-35.60L1207.80-35.60L1207.80-35.60Q1208.88-37.68 1210.92-39.24L1210.92-39.24L1210.92-39.24Q1212.96-40.80 1215.88-41.68L1215.88-41.68L1215.88-41.68Q1218.80-42.56 1222.56-42.56L1222.56-42.56L1222.56-42.56Q1226.64-42.56 1229.72-41.72L1229.72-41.72L1229.72-41.72Q1232.80-40.88 1235.28-39.60L1235.28-39.60L1233.28-33.68L1233.28-33.68Q1231.12-34.96 1228.36-35.76L1228.36-35.76L1228.36-35.76Q1225.60-36.56 1222.24-36.56L1222.24-36.56L1222.24-36.56Q1218.08-36.56 1215.92-34.88L1215.92-34.88L1215.92-34.88Q1213.76-33.20 1213.76-31.20L1213.76-31.20L1213.76-31.20Q1213.76-30.24 1214.12-29.44L1214.12-29.44L1214.12-29.44Q1214.48-28.64 1215.44-27.92L1215.44-27.92L1215.44-27.92Q1216.40-27.20 1218-26.48L1218-26.48L1218-26.48Q1219.60-25.76 1222-24.96L1222-24.96L1222-24.96Q1225.92-23.60 1228.64-22.20L1228.64-22.20L1228.64-22.20Q1231.36-20.80 1233.04-19.12L1233.04-19.12L1233.04-19.12Q1234.72-17.44 1235.44-15.48L1235.44-15.48L1235.44-15.48Q1236.16-13.52 1236.16-11.12L1236.16-11.12L1236.16-11.12Q1236.16-8.32 1234.96-6.08L1234.96-6.08L1234.96-6.08Q1233.76-3.84 1231.60-2.28L1231.60-2.28L1231.60-2.28Q1229.44-0.72 1226.36 0.12L1226.36 0.12L1226.36 0.12Q1223.28 0.96 1219.52 0.96L1219.52 0.96L1219.52 0.96Q1214.72 0.96 1210.96-0.24L1210.96-0.24L1210.96-0.24Q1207.20-1.44 1204.72-3.36L1204.72-3.36" fill="#ff0000" stroke="none" stroke-width="none" transform="translate(-1314.6400146484375,21.70854482343121)" style="fill: rgb(255, 0, 0);"></path></g><g class="path" style="transform: scale(0.91); transform-origin: -27.36px 0.908545px; animation: 1s linear -0.372581s infinite normal forwards running breath-9f59ce65-b751-4933-a246-1573cb4f95ef;"><path d="M1300.64-20.80L1300.64-20.80L1300.64-20.80Q1300.64-23.92 1299.64-26.72L1299.64-26.72L1299.64-26.72Q1298.64-29.52 1296.84-31.60L1296.84-31.60L1296.84-31.60Q1295.04-33.68 1292.60-34.92L1292.60-34.92L1292.60-34.92Q1290.16-36.16 1287.28-36.16L1287.28-36.16L1287.28-36.16Q1280.96-36.16 1277.44-32L1277.44-32L1277.44-32Q1273.92-27.84 1273.92-20.96L1273.92-20.96L1273.92-20.96Q1273.92-17.84 1274.92-15L1274.92-15L1274.92-15Q1275.92-12.16 1277.72-10.04L1277.72-10.04L1277.72-10.04Q1279.52-7.92 1281.96-6.68L1281.96-6.68L1281.96-6.68Q1284.40-5.44 1287.28-5.44L1287.28-5.44L1287.28-5.44Q1290.40-5.44 1292.88-6.56L1292.88-6.56L1292.88-6.56Q1295.36-7.68 1297.08-9.72L1297.08-9.72L1297.08-9.72Q1298.80-11.76 1299.72-14.56L1299.72-14.56L1299.72-14.56Q1300.64-17.36 1300.64-20.80zM1266.56-20.80L1266.56-20.80L1266.56-20.80Q1266.56-25.84 1268.16-29.88L1268.16-29.88L1268.16-29.88Q1269.76-33.92 1272.52-36.72L1272.52-36.72L1272.52-36.72Q1275.28-39.52 1279.08-41.04L1279.08-41.04L1279.08-41.04Q1282.88-42.56 1287.28-42.56L1287.28-42.56L1287.28-42.56Q1291.60-42.56 1295.40-41.04L1295.40-41.04L1295.40-41.04Q1299.20-39.52 1302.00-36.72L1302.00-36.72L1302.00-36.72Q1304.80-33.92 1306.40-29.92L1306.40-29.92L1306.40-29.92Q1308.00-25.92 1308.00-20.96L1308.00-20.96L1308.00-20.96Q1308.00-16 1306.44-11.96L1306.44-11.96L1306.44-11.96Q1304.88-7.92 1302.08-5.04L1302.08-5.04L1302.08-5.04Q1299.28-2.16 1295.48-0.60L1295.48-0.60L1295.48-0.60Q1291.68 0.96 1287.28 0.96L1287.28 0.96L1287.28 0.96Q1282.80 0.96 1279.00-0.64L1279.00-0.64L1279.00-0.64Q1275.20-2.24 1272.44-5.12L1272.44-5.12L1272.44-5.12Q1269.68-8 1268.12-12L1268.12-12L1268.12-12Q1266.56-16 1266.56-20.80" fill="#ff0000" stroke="none" stroke-width="none" transform="translate(-1314.6400146484375,21.70854482343121)" style="fill: rgb(255, 0, 0);"></path></g><g class="path" style="transform: scale(0.91); transform-origin: 15.3199px 0.428545px; animation: 1s linear -0.361935s infinite normal forwards running breath-9f59ce65-b751-4933-a246-1573cb4f95ef;"><path d="M1342.32-42.08L1340.16-34.64L1340.16-34.64Q1338.64-35.28 1336.56-35.28L1336.56-35.28L1336.56-35.28Q1334.32-35.28 1332.20-34.32L1332.20-34.32L1332.20-34.32Q1330.08-33.36 1328.44-31.44L1328.44-31.44L1328.44-31.44Q1326.80-29.52 1325.80-26.52L1325.80-26.52L1325.80-26.52Q1324.80-23.52 1324.80-19.44L1324.80-19.44L1324.80 0L1317.60 0L1317.60-41.60L1324.56-41.60L1324.56-32.56L1324.56-32.56Q1325.28-34.48 1326.48-36.32L1326.48-36.32L1326.48-36.32Q1327.68-38.16 1329.32-39.52L1329.32-39.52L1329.32-39.52Q1330.96-40.88 1333.12-41.72L1333.12-41.72L1333.12-41.72Q1335.28-42.56 1337.92-42.56L1337.92-42.56L1337.92-42.56Q1339.12-42.56 1340.28-42.44L1340.28-42.44L1340.28-42.44Q1341.44-42.32 1342.32-42.08L1342.32-42.08" fill="#ff0000" stroke="none" stroke-width="none" transform="translate(-1314.6400146484375,21.70854482343121)" style="fill: rgb(255, 0, 0);"></path></g><g class="path" style="transform: scale(0.91); transform-origin: 89.28px 0.428545px; animation: 1s linear -0.35129s infinite normal forwards running breath-9f59ce65-b751-4933-a246-1573cb4f95ef;"><path d="M1380.48-41.60L1380.48-34.64L1380.48-34.64Q1382.72-38 1386.12-40.28L1386.12-40.28L1386.12-40.28Q1389.52-42.56 1394.00-42.56L1394.00-42.56L1394.00-42.56Q1398.96-42.56 1402.08-40.20L1402.08-40.20L1402.08-40.20Q1405.20-37.84 1406.56-33.76L1406.56-33.76L1406.56-33.76Q1409.04-37.44 1412.44-40L1412.44-40L1412.44-40Q1415.84-42.56 1420.88-42.56L1420.88-42.56L1420.88-42.56Q1424.24-42.56 1426.76-41.44L1426.76-41.44L1426.76-41.44Q1429.28-40.32 1430.96-38.28L1430.96-38.28L1430.96-38.28Q1432.64-36.24 1433.48-33.40L1433.48-33.40L1433.48-33.40Q1434.32-30.56 1434.32-27.12L1434.32-27.12L1434.32 0L1427.12 0L1427.12-26.56L1427.12-26.56Q1427.12-30.88 1425.12-33.56L1425.12-33.56L1425.12-33.56Q1423.12-36.24 1419.60-36.24L1419.60-36.24L1419.60-36.24Q1417.76-36.24 1416.08-35.52L1416.08-35.52L1416.08-35.52Q1414.40-34.80 1412.88-33.56L1412.88-33.56L1412.88-33.56Q1411.36-32.32 1410.00-30.68L1410.00-30.68L1410.00-30.68Q1408.64-29.04 1407.52-27.28L1407.52-27.28L1407.52 0L1400.32 0L1400.32-26.56L1400.32-26.56Q1400.32-30.88 1398.32-33.56L1398.32-33.56L1398.32-33.56Q1396.32-36.24 1392.80-36.24L1392.80-36.24L1392.80-36.24Q1391.04-36.24 1389.36-35.56L1389.36-35.56L1389.36-35.56Q1387.68-34.88 1386.12-33.68L1386.12-33.68L1386.12-33.68Q1384.56-32.48 1383.20-30.88L1383.20-30.88L1383.20-30.88Q1381.84-29.28 1380.72-27.52L1380.72-27.52L1380.72 0L1373.52 0L1373.52-41.60L1380.48-41.60" fill="#ff0000" stroke="none" stroke-width="none" transform="translate(-1314.6400146484375,21.70854482343121)" style="fill: rgb(255, 0, 0);"></path></g><g class="path" style="transform: scale(0.91); transform-origin: 149.6px 0.908545px; animation: 1s linear -0.340645s infinite normal forwards running breath-9f59ce65-b751-4933-a246-1573cb4f95ef;"><path d="M1477.60-20.80L1477.60-20.80L1477.60-20.80Q1477.60-23.92 1476.60-26.72L1476.60-26.72L1476.60-26.72Q1475.60-29.52 1473.80-31.60L1473.80-31.60L1473.80-31.60Q1472.00-33.68 1469.56-34.92L1469.56-34.92L1469.56-34.92Q1467.12-36.16 1464.24-36.16L1464.24-36.16L1464.24-36.16Q1457.92-36.16 1454.40-32L1454.40-32L1454.40-32Q1450.88-27.84 1450.88-20.96L1450.88-20.96L1450.88-20.96Q1450.88-17.84 1451.88-15L1451.88-15L1451.88-15Q1452.88-12.16 1454.68-10.04L1454.68-10.04L1454.68-10.04Q1456.48-7.92 1458.92-6.68L1458.92-6.68L1458.92-6.68Q1461.36-5.44 1464.24-5.44L1464.24-5.44L1464.24-5.44Q1467.36-5.44 1469.84-6.56L1469.84-6.56L1469.84-6.56Q1472.32-7.68 1474.04-9.72L1474.04-9.72L1474.04-9.72Q1475.76-11.76 1476.68-14.56L1476.68-14.56L1476.68-14.56Q1477.60-17.36 1477.60-20.80zM1443.52-20.80L1443.52-20.80L1443.52-20.80Q1443.52-25.84 1445.12-29.88L1445.12-29.88L1445.12-29.88Q1446.72-33.92 1449.48-36.72L1449.48-36.72L1449.48-36.72Q1452.24-39.52 1456.04-41.04L1456.04-41.04L1456.04-41.04Q1459.84-42.56 1464.24-42.56L1464.24-42.56L1464.24-42.56Q1468.56-42.56 1472.36-41.04L1472.36-41.04L1472.36-41.04Q1476.16-39.52 1478.96-36.72L1478.96-36.72L1478.96-36.72Q1481.76-33.92 1483.36-29.92L1483.36-29.92L1483.36-29.92Q1484.96-25.92 1484.96-20.96L1484.96-20.96L1484.96-20.96Q1484.96-16 1483.40-11.96L1483.40-11.96L1483.40-11.96Q1481.84-7.92 1479.04-5.04L1479.04-5.04L1479.04-5.04Q1476.24-2.16 1472.44-0.60L1472.44-0.60L1472.44-0.60Q1468.64 0.96 1464.24 0.96L1464.24 0.96L1464.24 0.96Q1459.76 0.96 1455.96-0.64L1455.96-0.64L1455.96-0.64Q1452.16-2.24 1449.40-5.12L1449.40-5.12L1449.40-5.12Q1446.64-8 1445.08-12L1445.08-12L1445.08-12Q1443.52-16 1443.52-20.80" fill="#ff0000" stroke="none" stroke-width="none" transform="translate(-1314.6400146484375,21.70854482343121)" style="fill: rgb(255, 0, 0);"></path></g><g class="path" style="transform: scale(0.91); transform-origin: 192.28px 0.428545px; animation: 1s linear -0.33s infinite normal forwards running breath-9f59ce65-b751-4933-a246-1573cb4f95ef;"><path d="M1519.28-42.08L1517.12-34.64L1517.12-34.64Q1515.60-35.28 1513.52-35.28L1513.52-35.28L1513.52-35.28Q1511.28-35.28 1509.16-34.32L1509.16-34.32L1509.16-34.32Q1507.04-33.36 1505.40-31.44L1505.40-31.44L1505.40-31.44Q1503.76-29.52 1502.76-26.52L1502.76-26.52L1502.76-26.52Q1501.76-23.52 1501.76-19.44L1501.76-19.44L1501.76 0L1494.56 0L1494.56-41.60L1501.52-41.60L1501.52-32.56L1501.52-32.56Q1502.24-34.48 1503.44-36.32L1503.44-36.32L1503.44-36.32Q1504.64-38.16 1506.28-39.52L1506.28-39.52L1506.28-39.52Q1507.92-40.88 1510.08-41.72L1510.08-41.72L1510.08-41.72Q1512.24-42.56 1514.88-42.56L1514.88-42.56L1514.88-42.56Q1516.08-42.56 1517.24-42.44L1517.24-42.44L1517.24-42.44Q1518.40-42.32 1519.28-42.08L1519.28-42.08" fill="#ff0000" stroke="none" stroke-width="none" transform="translate(-1314.6400146484375,21.70854482343121)" style="fill: rgb(255, 0, 0);"></path></g><g class="path" style="transform: scale(0.91); transform-origin: 225px 0.908545px; animation: 1s linear -0.319355s infinite normal forwards running breath-9f59ce65-b751-4933-a246-1573cb4f95ef;"><path d="M1557.76-17.84L1528.64-17.84L1528.64-17.84Q1529.36-12 1532.72-8.72L1532.72-8.72L1532.72-8.72Q1536.08-5.44 1541.60-5.44L1541.60-5.44L1541.60-5.44Q1545.20-5.44 1548.08-6.20L1548.08-6.20L1548.08-6.20Q1550.96-6.96 1553.60-8.16L1553.60-8.16L1555.28-2L1555.28-2Q1552.40-0.64 1548.80 0.16L1548.80 0.16L1548.80 0.16Q1545.20 0.96 1540.72 0.96L1540.72 0.96L1540.72 0.96Q1536.24 0.96 1532.64-0.52L1532.64-0.52L1532.64-0.52Q1529.04-2 1526.52-4.76L1526.52-4.76L1526.52-4.76Q1524-7.52 1522.64-11.56L1522.64-11.56L1522.64-11.56Q1521.28-15.60 1521.28-20.80L1521.28-20.80L1521.28-20.80Q1521.28-25.44 1522.64-29.44L1522.64-29.44L1522.64-29.44Q1524-33.44 1526.48-36.36L1526.48-36.36L1526.48-36.36Q1528.96-39.28 1532.40-40.92L1532.40-40.92L1532.40-40.92Q1535.84-42.56 1540.08-42.56L1540.08-42.56L1540.08-42.56Q1544.56-42.56 1547.92-41.04L1547.92-41.04L1547.92-41.04Q1551.28-39.52 1553.52-36.88L1553.52-36.88L1553.52-36.88Q1555.76-34.24 1556.88-30.72L1556.88-30.72L1556.88-30.72Q1558-27.20 1558-23.28L1558-23.28L1558-23.28Q1558-20.48 1557.76-17.84L1557.76-17.84zM1539.92-36.32L1539.92-36.32L1539.92-36.32Q1535.20-36.32 1532.20-33.12L1532.20-33.12L1532.20-33.12Q1529.20-29.92 1528.56-23.68L1528.56-23.68L1551.36-23.68L1551.36-23.68Q1551.36-29.76 1548.32-33.04L1548.32-33.04L1548.32-33.04Q1545.28-36.32 1539.92-36.32" fill="#ff0000" stroke="none" stroke-width="none" transform="translate(-1314.6400146484375,21.70854482343121)" style="fill: rgb(255, 0, 0);"></path></g><g class="path" style="transform: scale(0.91); transform-origin: 303.28px 0.708546px; animation: 1s linear -0.30871s infinite normal forwards running breath-9f59ce65-b751-4933-a246-1573cb4f95ef;"><path d="M1631.60-8.16L1642.24-42L1648.64-39.68L1635.44 0L1627.52 0L1617.92-30.96L1608.24 0L1600.32 0L1587.20-39.68L1593.84-42L1604.56-8.16L1614.32-38.64L1622.08-38.64L1631.60-8.16" fill="#ff0000" stroke="none" stroke-width="none" transform="translate(-1314.6400146484375,21.70854482343121)" style="fill: rgb(255, 0, 0);"></path></g><g class="path" style="transform: scale(0.91); transform-origin: 346px 0.908546px; animation: 1s linear -0.298065s infinite normal forwards running breath-9f59ce65-b751-4933-a246-1573cb4f95ef;"><path d="M1664.24-41.60L1664.24 0L1657.04 0L1657.04-41.60L1664.24-41.60" fill="#ff0000" stroke="none" stroke-width="none" transform="translate(-1314.6400146484375,21.70854482343121)" style="fill: rgb(255, 0, 0);"></path></g><g class="path" style="transform: scale(0.91); transform-origin: 346px -32.0515px; animation: 1s linear -0.287419s infinite normal forwards running breath-9f59ce65-b751-4933-a246-1573cb4f95ef;"><path d="M1660.64-48.72L1660.64-48.72L1660.64-48.72Q1658.56-48.72 1657.08-50.20L1657.08-50.20L1657.08-50.20Q1655.60-51.68 1655.60-53.76L1655.60-53.76L1655.60-53.76Q1655.60-56.08 1656.96-57.44L1656.96-57.44L1656.96-57.44Q1658.32-58.80 1660.64-58.80L1660.64-58.80L1660.64-58.80Q1662.72-58.80 1664.20-57.32L1664.20-57.32L1664.20-57.32Q1665.68-55.84 1665.68-53.76L1665.68-53.76L1665.68-53.76Q1665.68-51.44 1664.32-50.08L1664.32-50.08L1664.32-50.08Q1662.96-48.72 1660.64-48.72" fill="#ff0000" stroke="none" stroke-width="none" transform="translate(-1314.6400146484375,21.70854482343121)" style="fill: rgb(255, 0, 0);"></path></g><g class="path" style="transform: scale(0.91); transform-origin: 372.64px -7.41146px; animation: 1s linear -0.276774s infinite normal forwards running breath-9f59ce65-b751-4933-a246-1573cb4f95ef;"><path d="M1683.84-59.20L1683.84-13.76L1683.84-13.76Q1683.84-9.44 1685.64-7.36L1685.64-7.36L1685.64-7.36Q1687.44-5.28 1690.64-5.28L1690.64-5.28L1690.64-5.28Q1692.16-5.28 1693.60-5.64L1693.60-5.64L1693.60-5.64Q1695.04-6 1696.16-6.48L1696.16-6.48L1697.92-0.64L1697.92-0.64Q1696.48 0 1694.36 0.48L1694.36 0.48L1694.36 0.48Q1692.24 0.96 1689.68 0.96L1689.68 0.96L1689.68 0.96Q1686.88 0.96 1684.52 0.16L1684.52 0.16L1684.52 0.16Q1682.16-0.64 1680.40-2.32L1680.40-2.32L1680.40-2.32Q1678.64-4 1677.64-6.64L1677.64-6.64L1677.64-6.64Q1676.64-9.28 1676.64-13.04L1676.64-13.04L1676.64-59.20L1683.84-59.20" fill="#ff0000" stroke="none" stroke-width="none" transform="translate(-1314.6400146484375,21.70854482343121)" style="fill: rgb(255, 0, 0);"></path></g><g class="path" style="transform: scale(0.91); transform-origin: 399.52px -7.41146px; animation: 1s linear -0.266129s infinite normal forwards running breath-9f59ce65-b751-4933-a246-1573cb4f95ef;"><path d="M1710.72-59.20L1710.72-13.76L1710.72-13.76Q1710.72-9.44 1712.52-7.36L1712.52-7.36L1712.52-7.36Q1714.32-5.28 1717.52-5.28L1717.52-5.28L1717.52-5.28Q1719.04-5.28 1720.48-5.64L1720.48-5.64L1720.48-5.64Q1721.92-6 1723.04-6.48L1723.04-6.48L1724.80-0.64L1724.80-0.64Q1723.36 0 1721.24 0.48L1721.24 0.48L1721.24 0.48Q1719.12 0.96 1716.56 0.96L1716.56 0.96L1716.56 0.96Q1713.76 0.96 1711.40 0.16L1711.40 0.16L1711.40 0.16Q1709.04-0.64 1707.28-2.32L1707.28-2.32L1707.28-2.32Q1705.52-4 1704.52-6.64L1704.52-6.64L1704.52-6.64Q1703.52-9.28 1703.52-13.04L1703.52-13.04L1703.52-59.20L1710.72-59.20" fill="#ff0000" stroke="none" stroke-width="none" transform="translate(-1314.6400146484375,21.70854482343121)" style="fill: rgb(255, 0, 0);"></path></g><g class="path" style="transform: scale(0.91); transform-origin: 453.32px 0.428545px; animation: 1s linear -0.255484s infinite normal forwards running breath-9f59ce65-b751-4933-a246-1573cb4f95ef;"><path d="M1780.32-42.08L1778.16-34.64L1778.16-34.64Q1776.64-35.28 1774.56-35.28L1774.56-35.28L1774.56-35.28Q1772.32-35.28 1770.20-34.32L1770.20-34.32L1770.20-34.32Q1768.08-33.36 1766.44-31.44L1766.44-31.44L1766.44-31.44Q1764.80-29.52 1763.80-26.52L1763.80-26.52L1763.80-26.52Q1762.80-23.52 1762.80-19.44L1762.80-19.44L1762.80 0L1755.60 0L1755.60-41.60L1762.56-41.60L1762.56-32.56L1762.56-32.56Q1763.28-34.48 1764.48-36.32L1764.48-36.32L1764.48-36.32Q1765.68-38.16 1767.32-39.52L1767.32-39.52L1767.32-39.52Q1768.96-40.88 1771.12-41.72L1771.12-41.72L1771.12-41.72Q1773.28-42.56 1775.92-42.56L1775.92-42.56L1775.92-42.56Q1777.12-42.56 1778.28-42.44L1778.28-42.44L1778.28-42.44Q1779.44-42.32 1780.32-42.08L1780.32-42.08" fill="#ff0000" stroke="none" stroke-width="none" transform="translate(-1314.6400146484375,21.70854482343121)" style="fill: rgb(255, 0, 0);"></path></g><g class="path" style="transform: scale(0.91); transform-origin: 486.04px 0.908545px; animation: 1s linear -0.244839s infinite normal forwards running breath-9f59ce65-b751-4933-a246-1573cb4f95ef;"><path d="M1818.80-17.84L1789.68-17.84L1789.68-17.84Q1790.40-12 1793.76-8.72L1793.76-8.72L1793.76-8.72Q1797.12-5.44 1802.64-5.44L1802.64-5.44L1802.64-5.44Q1806.24-5.44 1809.12-6.20L1809.12-6.20L1809.12-6.20Q1812.00-6.96 1814.64-8.16L1814.64-8.16L1816.32-2L1816.32-2Q1813.44-0.64 1809.84 0.16L1809.84 0.16L1809.84 0.16Q1806.24 0.96 1801.76 0.96L1801.76 0.96L1801.76 0.96Q1797.28 0.96 1793.68-0.52L1793.68-0.52L1793.68-0.52Q1790.08-2 1787.56-4.76L1787.56-4.76L1787.56-4.76Q1785.04-7.52 1783.68-11.56L1783.68-11.56L1783.68-11.56Q1782.32-15.60 1782.32-20.80L1782.32-20.80L1782.32-20.80Q1782.32-25.44 1783.68-29.44L1783.68-29.44L1783.68-29.44Q1785.04-33.44 1787.52-36.36L1787.52-36.36L1787.52-36.36Q1790.00-39.28 1793.44-40.92L1793.44-40.92L1793.44-40.92Q1796.88-42.56 1801.12-42.56L1801.12-42.56L1801.12-42.56Q1805.60-42.56 1808.96-41.04L1808.96-41.04L1808.96-41.04Q1812.32-39.52 1814.56-36.88L1814.56-36.88L1814.56-36.88Q1816.80-34.24 1817.92-30.72L1817.92-30.72L1817.92-30.72Q1819.04-27.20 1819.04-23.28L1819.04-23.28L1819.04-23.28Q1819.04-20.48 1818.80-17.84L1818.80-17.84zM1800.96-36.32L1800.96-36.32L1800.96-36.32Q1796.24-36.32 1793.24-33.12L1793.24-33.12L1793.24-33.12Q1790.24-29.92 1789.60-23.68L1789.60-23.68L1812.40-23.68L1812.40-23.68Q1812.40-29.76 1809.36-33.04L1809.36-33.04L1809.36-33.04Q1806.32-36.32 1800.96-36.32" fill="#ff0000" stroke="none" stroke-width="none" transform="translate(-1314.6400146484375,21.70854482343121)" style="fill: rgb(255, 0, 0);"></path></g><g class="path" style="transform: scale(0.91); transform-origin: 527.28px 0.908545px; animation: 1s linear -0.234194s infinite normal forwards running breath-9f59ce65-b751-4933-a246-1573cb4f95ef;"><path d="M1857.36-40.08L1855.20-34L1855.20-34Q1852.88-35.12 1850.88-35.64L1850.88-35.64L1850.88-35.64Q1848.88-36.16 1846.40-36.16L1846.40-36.16L1846.40-36.16Q1843.60-36.16 1841.16-35.12L1841.16-35.12L1841.16-35.12Q1838.72-34.08 1836.96-32.12L1836.96-32.12L1836.96-32.12Q1835.20-30.16 1834.20-27.36L1834.20-27.36L1834.20-27.36Q1833.20-24.56 1833.20-20.96L1833.20-20.96L1833.20-20.96Q1833.20-17.68 1834.12-14.88L1834.12-14.88L1834.12-14.88Q1835.04-12.08 1836.72-9.96L1836.72-9.96L1836.72-9.96Q1838.40-7.84 1840.72-6.64L1840.72-6.64L1840.72-6.64Q1843.04-5.44 1845.92-5.44L1845.92-5.44L1845.92-5.44Q1848.96-5.44 1851.12-6.08L1851.12-6.08L1851.12-6.08Q1853.28-6.72 1855.76-8.08L1855.76-8.08L1858.00-2L1858.00-2Q1855.44-0.64 1852.40 0.16L1852.40 0.16L1852.40 0.16Q1849.36 0.96 1845.44 0.96L1845.44 0.96L1845.44 0.96Q1840.96 0.96 1837.36-0.64L1837.36-0.64L1837.36-0.64Q1833.76-2.24 1831.20-5.12L1831.20-5.12L1831.20-5.12Q1828.64-8 1827.24-12L1827.24-12L1827.24-12Q1825.84-16 1825.84-20.80L1825.84-20.80L1825.84-20.80Q1825.84-25.28 1827.24-29.24L1827.24-29.24L1827.24-29.24Q1828.64-33.20 1831.28-36.16L1831.28-36.16L1831.28-36.16Q1833.92-39.12 1837.64-40.84L1837.64-40.84L1837.64-40.84Q1841.36-42.56 1846.00-42.56L1846.00-42.56L1846.00-42.56Q1849.60-42.56 1852.24-41.92L1852.24-41.92L1852.24-41.92Q1854.88-41.28 1857.36-40.08L1857.36-40.08" fill="#ff0000" stroke="none" stroke-width="none" transform="translate(-1314.6400146484375,21.70854482343121)" style="fill: rgb(255, 0, 0);"></path></g><g class="path" style="transform: scale(0.91); transform-origin: 566.52px 0.908545px; animation: 1s linear -0.223548s infinite normal forwards running breath-9f59ce65-b751-4933-a246-1573cb4f95ef;"><path d="M1899.28-17.84L1870.16-17.84L1870.16-17.84Q1870.88-12 1874.24-8.72L1874.24-8.72L1874.24-8.72Q1877.60-5.44 1883.12-5.44L1883.12-5.44L1883.12-5.44Q1886.72-5.44 1889.60-6.20L1889.60-6.20L1889.60-6.20Q1892.48-6.96 1895.12-8.16L1895.12-8.16L1896.80-2L1896.80-2Q1893.92-0.64 1890.32 0.16L1890.32 0.16L1890.32 0.16Q1886.72 0.96 1882.24 0.96L1882.24 0.96L1882.24 0.96Q1877.76 0.96 1874.16-0.52L1874.16-0.52L1874.16-0.52Q1870.56-2 1868.04-4.76L1868.04-4.76L1868.04-4.76Q1865.52-7.52 1864.16-11.56L1864.16-11.56L1864.16-11.56Q1862.80-15.60 1862.80-20.80L1862.80-20.80L1862.80-20.80Q1862.80-25.44 1864.16-29.44L1864.16-29.44L1864.16-29.44Q1865.52-33.44 1868.00-36.36L1868.00-36.36L1868.00-36.36Q1870.48-39.28 1873.92-40.92L1873.92-40.92L1873.92-40.92Q1877.36-42.56 1881.60-42.56L1881.60-42.56L1881.60-42.56Q1886.08-42.56 1889.44-41.04L1889.44-41.04L1889.44-41.04Q1892.80-39.52 1895.04-36.88L1895.04-36.88L1895.04-36.88Q1897.28-34.24 1898.40-30.72L1898.40-30.72L1898.40-30.72Q1899.52-27.20 1899.52-23.28L1899.52-23.28L1899.52-23.28Q1899.52-20.48 1899.28-17.84L1899.28-17.84zM1881.44-36.32L1881.44-36.32L1881.44-36.32Q1876.72-36.32 1873.72-33.12L1873.72-33.12L1873.72-33.12Q1870.72-29.92 1870.08-23.68L1870.08-23.68L1892.88-23.68L1892.88-23.68Q1892.88-29.76 1889.84-33.04L1889.84-33.04L1889.84-33.04Q1886.80-36.32 1881.44-36.32" fill="#ff0000" stroke="none" stroke-width="none" transform="translate(-1314.6400146484375,21.70854482343121)" style="fill: rgb(255, 0, 0);"></path></g><g class="path" style="transform: scale(0.91); transform-origin: 598.08px 0.908546px; animation: 1s linear -0.212903s infinite normal forwards running breath-9f59ce65-b751-4933-a246-1573cb4f95ef;"><path d="M1916.32-41.60L1916.32 0L1909.12 0L1909.12-41.60L1916.32-41.60" fill="#ff0000" stroke="none" stroke-width="none" transform="translate(-1314.6400146484375,21.70854482343121)" style="fill: rgb(255, 0, 0);"></path></g><g class="path" style="transform: scale(0.91); transform-origin: 598.08px -32.0515px; animation: 1s linear -0.202258s infinite normal forwards running breath-9f59ce65-b751-4933-a246-1573cb4f95ef;"><path d="M1912.72-48.72L1912.72-48.72L1912.72-48.72Q1910.64-48.72 1909.16-50.20L1909.16-50.20L1909.16-50.20Q1907.68-51.68 1907.68-53.76L1907.68-53.76L1907.68-53.76Q1907.68-56.08 1909.04-57.44L1909.04-57.44L1909.04-57.44Q1910.40-58.80 1912.72-58.80L1912.72-58.80L1912.72-58.80Q1914.80-58.80 1916.28-57.32L1916.28-57.32L1916.28-57.32Q1917.76-55.84 1917.76-53.76L1917.76-53.76L1917.76-53.76Q1917.76-51.44 1916.40-50.08L1916.40-50.08L1916.40-50.08Q1915.04-48.72 1912.72-48.72" fill="#ff0000" stroke="none" stroke-width="none" transform="translate(-1314.6400146484375,21.70854482343121)" style="fill: rgb(255, 0, 0);"></path></g><g class="path" style="transform: scale(0.91); transform-origin: 629.4px 0.508545px; animation: 1s linear -0.191613s infinite normal forwards running breath-9f59ce65-b751-4933-a246-1573cb4f95ef;"><path d="M1940.24 0L1923.52-39.68L1930.08-42.40L1944.24-8.16L1958.40-42.40L1964.56-39.68L1947.76 0L1940.24 0" fill="#ff0000" stroke="none" stroke-width="none" transform="translate(-1314.6400146484375,21.70854482343121)" style="fill: rgb(255, 0, 0);"></path></g><g class="path" style="transform: scale(0.91); transform-origin: 671.08px 0.908545px; animation: 1s linear -0.180968s infinite normal forwards running breath-9f59ce65-b751-4933-a246-1573cb4f95ef;"><path d="M2003.84-17.84L1974.72-17.84L1974.72-17.84Q1975.44-12 1978.80-8.72L1978.80-8.72L1978.80-8.72Q1982.16-5.44 1987.68-5.44L1987.68-5.44L1987.68-5.44Q1991.28-5.44 1994.16-6.20L1994.16-6.20L1994.16-6.20Q1997.04-6.96 1999.68-8.16L1999.68-8.16L2001.36-2L2001.36-2Q1998.48-0.64 1994.88 0.16L1994.88 0.16L1994.88 0.16Q1991.28 0.96 1986.80 0.96L1986.80 0.96L1986.80 0.96Q1982.32 0.96 1978.72-0.52L1978.72-0.52L1978.72-0.52Q1975.12-2 1972.60-4.76L1972.60-4.76L1972.60-4.76Q1970.08-7.52 1968.72-11.56L1968.72-11.56L1968.72-11.56Q1967.36-15.60 1967.36-20.80L1967.36-20.80L1967.36-20.80Q1967.36-25.44 1968.72-29.44L1968.72-29.44L1968.72-29.44Q1970.08-33.44 1972.56-36.36L1972.56-36.36L1972.56-36.36Q1975.04-39.28 1978.48-40.92L1978.48-40.92L1978.48-40.92Q1981.92-42.56 1986.16-42.56L1986.16-42.56L1986.16-42.56Q1990.64-42.56 1994.00-41.04L1994.00-41.04L1994.00-41.04Q1997.36-39.52 1999.60-36.88L1999.60-36.88L1999.60-36.88Q2001.84-34.24 2002.96-30.72L2002.96-30.72L2002.96-30.72Q2004.08-27.20 2004.08-23.28L2004.08-23.28L2004.08-23.28Q2004.08-20.48 2003.84-17.84L2003.84-17.84zM1986.00-36.32L1986.00-36.32L1986.00-36.32Q1981.28-36.32 1978.28-33.12L1978.28-33.12L1978.28-33.12Q1975.28-29.92 1974.64-23.68L1974.64-23.68L1997.44-23.68L1997.44-23.68Q1997.44-29.76 1994.40-33.04L1994.40-33.04L1994.40-33.04Q1991.36-36.32 1986.00-36.32" fill="#ff0000" stroke="none" stroke-width="none" transform="translate(-1314.6400146484375,21.70854482343121)" style="fill: rgb(255, 0, 0);"></path></g><g class="path" style="transform: scale(0.91); transform-origin: 741.52px 0.908545px; animation: 1s linear -0.170323s infinite normal forwards running breath-9f59ce65-b751-4933-a246-1573cb4f95ef;"><path d="M2034.88-20.56L2034.88-20.56L2034.88-20.56Q2034.88-25.20 2036.32-29.24L2036.32-29.24L2036.32-29.24Q2037.76-33.28 2040.36-36.24L2040.36-36.24L2040.36-36.24Q2042.96-39.20 2046.60-40.88L2046.60-40.88L2046.60-40.88Q2050.24-42.56 2054.56-42.56L2054.56-42.56L2054.56-42.56Q2058.16-42.56 2061.08-41.32L2061.08-41.32L2061.08-41.32Q2064.00-40.08 2066.16-38.24L2066.16-38.24L2066.16-41.60L2072.72-41.60L2072.72-10.08L2072.72-10.08Q2072.72-7.04 2074.20-6.12L2074.20-6.12L2074.20-6.12Q2075.68-5.20 2077.44-5.20L2077.44-5.20L2075.92 0.40L2075.92 0.40Q2068.24 0.40 2066.64-5.84L2066.64-5.84L2066.64-5.84Q2065.68-4.56 2064.44-3.32L2064.44-3.32L2064.44-3.32Q2063.20-2.08 2061.60-1.12L2061.60-1.12L2061.60-1.12Q2060.00-0.16 2058.00 0.40L2058.00 0.40L2058.00 0.40Q2056.00 0.96 2053.60 0.96L2053.60 0.96L2053.60 0.96Q2049.68 0.96 2046.28-0.56L2046.28-0.56L2046.28-0.56Q2042.88-2.08 2040.36-4.88L2040.36-4.88L2040.36-4.88Q2037.84-7.68 2036.36-11.64L2036.36-11.64L2036.36-11.64Q2034.88-15.60 2034.88-20.56zM2055.20-5.44L2055.20-5.44L2055.20-5.44Q2058.24-5.44 2060.96-6.88L2060.96-6.88L2060.96-6.88Q2063.68-8.32 2065.52-10.64L2065.52-10.64L2065.52-32.96L2065.52-32.96Q2063.36-34.48 2060.76-35.40L2060.76-35.40L2060.76-35.40Q2058.16-36.32 2055.28-36.32L2055.28-36.32L2055.28-36.32Q2052.40-36.32 2050.00-35.20L2050.00-35.20L2050.00-35.20Q2047.60-34.08 2045.88-32.04L2045.88-32.04L2045.88-32.04Q2044.16-30 2043.20-27.12L2043.20-27.12L2043.20-27.12Q2042.24-24.24 2042.24-20.80L2042.24-20.80L2042.24-20.80Q2042.24-17.44 2043.20-14.60L2043.20-14.60L2043.20-14.60Q2044.16-11.76 2045.92-9.72L2045.92-9.72L2045.92-9.72Q2047.68-7.68 2050.04-6.56L2050.04-6.56L2050.04-6.56Q2052.40-5.44 2055.20-5.44" fill="#ff0000" stroke="none" stroke-width="none" transform="translate(-1314.6400146484375,21.70854482343121)" style="fill: rgb(255, 0, 0);"></path></g><g class="path" style="transform: scale(0.91); transform-origin: 814px -6.29145px; animation: 1s linear -0.159677s infinite normal forwards running breath-9f59ce65-b751-4933-a246-1573cb4f95ef;"><path d="M2129.52-56L2134.80-56L2134.80-6.40L2144.32-6.40L2144.32 0L2116.16 0L2116.16-6.40L2127.60-6.40L2127.60-46.80L2116.88-38.72L2112.96-44.08L2129.52-56" fill="#ff0000" stroke="none" stroke-width="none" transform="translate(-1314.6400146484375,21.70854482343121)" style="fill: rgb(255, 0, 0);"></path></g><g class="path" style="transform: scale(0.91); transform-origin: 862px -6.29145px; animation: 1s linear -0.149032s infinite normal forwards running breath-9f59ce65-b751-4933-a246-1573cb4f95ef;"><path d="M2176.72-56.96L2176.72-56.96L2176.72-56.96Q2181.36-56.96 2184.96-55L2184.96-55L2184.96-55Q2188.56-53.04 2190.96-49.32L2190.96-49.32L2190.96-49.32Q2193.36-45.60 2194.60-40.20L2194.60-40.20L2194.60-40.20Q2195.84-34.80 2195.84-27.92L2195.84-27.92L2195.84-27.92Q2195.84-14 2190.88-6.52L2190.88-6.52L2190.88-6.52Q2185.92 0.96 2176.56 0.96L2176.56 0.96L2176.56 0.96Q2167.20 0.96 2162.32-6.64L2162.32-6.64L2162.32-6.64Q2157.44-14.24 2157.44-28.08L2157.44-28.08L2157.44-28.08Q2157.44-42 2162.40-49.48L2162.40-49.48L2162.40-49.48Q2167.36-56.96 2176.72-56.96zM2176.64-50.40L2176.64-50.40L2176.64-50.40Q2174.00-50.40 2171.84-49.24L2171.84-49.24L2171.84-49.24Q2169.68-48.08 2168.16-45.48L2168.16-45.48L2168.16-45.48Q2166.64-42.88 2165.84-38.64L2165.84-38.64L2165.84-38.64Q2165.04-34.40 2165.04-28.16L2165.04-28.16L2165.04-28.16Q2165.04-17.04 2168.08-11.32L2168.08-11.32L2168.08-11.32Q2171.12-5.60 2176.64-5.60L2176.64-5.60L2176.64-5.60Q2179.28-5.60 2181.44-6.76L2181.44-6.76L2181.44-6.76Q2183.60-7.92 2185.12-10.52L2185.12-10.52L2185.12-10.52Q2186.64-13.12 2187.44-17.36L2187.44-17.36L2187.44-17.36Q2188.24-21.60 2188.24-27.84L2188.24-27.84L2188.24-27.84Q2188.24-38.96 2185.20-44.68L2185.20-44.68L2185.20-44.68Q2182.16-50.40 2176.64-50.40" fill="#ff0000" stroke="none" stroke-width="none" transform="translate(-1314.6400146484375,21.70854482343121)" style="fill: rgb(255, 0, 0);"></path></g><g class="path" style="transform: scale(0.91); transform-origin: 921.8px -6.29145px; animation: 1s linear -0.138387s infinite normal forwards running breath-9f59ce65-b751-4933-a246-1573cb4f95ef;"><path d="M2221.36 3.20L2216.56 0.16L2251.52-59.20L2256.32-56.16L2221.36 3.20" fill="#ff0000" stroke="none" stroke-width="none" transform="translate(-1314.6400146484375,21.70854482343121)" style="fill: rgb(255, 0, 0);"></path></g><g class="path" style="transform: scale(0.91); transform-origin: 902.72px -17.3715px; animation: 1s linear -0.127742s infinite normal forwards running breath-9f59ce65-b751-4933-a246-1573cb4f95ef;"><path d="M2231.04-39.20L2231.04-39.20L2231.04-39.20Q2231.04-30.88 2227.52-26.24L2227.52-26.24L2227.52-26.24Q2224.00-21.60 2217.28-21.60L2217.28-21.60L2217.28-21.60Q2210.56-21.60 2207.12-26.20L2207.12-26.20L2207.12-26.20Q2203.68-30.80 2203.68-39.20L2203.68-39.20L2203.68-39.20Q2203.68-47.52 2207.20-52.04L2207.20-52.04L2207.20-52.04Q2210.72-56.56 2217.36-56.56L2217.36-56.56L2217.36-56.56Q2224.00-56.56 2227.52-52.04L2227.52-52.04L2227.52-52.04Q2231.04-47.52 2231.04-39.20zM2224.40-39.20L2224.40-39.20L2224.40-39.20Q2224.40-45.20 2222.56-48.24L2222.56-48.24L2222.56-48.24Q2220.72-51.28 2217.28-51.28L2217.28-51.28L2217.28-51.28Q2214.00-51.28 2212.16-48.60L2212.16-48.60L2212.16-48.60Q2210.32-45.92 2210.32-39.20L2210.32-39.20L2210.32-39.20Q2210.32-33.20 2212.16-30.08L2212.16-30.08L2212.16-30.08Q2214.00-26.96 2217.36-26.96L2217.36-26.96L2217.36-26.96Q2219.04-26.96 2220.36-27.60L2220.36-27.60L2220.36-27.60Q2221.68-28.24 2222.56-29.68L2222.56-29.68L2222.56-29.68Q2223.44-31.12 2223.92-33.44L2223.92-33.44L2223.92-33.44Q2224.40-35.76 2224.40-39.20" fill="#ff0000" stroke="none" stroke-width="none" transform="translate(-1314.6400146484375,21.70854482343121)" style="fill: rgb(255, 0, 0);"></path></g><g class="path" style="transform: scale(0.91); transform-origin: 941.28px 4.70855px; animation: 1s linear -0.117097s infinite normal forwards running breath-9f59ce65-b751-4933-a246-1573cb4f95ef;"><path d="M2269.60-17.12L2269.60-17.12L2269.60-17.12Q2269.60-8.80 2266.08-4.16L2266.08-4.16L2266.08-4.16Q2262.56 0.48 2255.84 0.48L2255.84 0.48L2255.84 0.48Q2249.12 0.48 2245.68-4.12L2245.68-4.12L2245.68-4.12Q2242.24-8.72 2242.24-17.12L2242.24-17.12L2242.24-17.12Q2242.24-25.44 2245.76-29.96L2245.76-29.96L2245.76-29.96Q2249.28-34.48 2255.92-34.48L2255.92-34.48L2255.92-34.48Q2262.56-34.48 2266.08-29.96L2266.08-29.96L2266.08-29.96Q2269.60-25.44 2269.60-17.12zM2262.96-17.12L2262.96-17.12L2262.96-17.12Q2262.96-23.12 2261.12-26.16L2261.12-26.16L2261.12-26.16Q2259.28-29.20 2255.84-29.20L2255.84-29.20L2255.84-29.20Q2252.56-29.20 2250.72-26.52L2250.72-26.52L2250.72-26.52Q2248.88-23.84 2248.88-17.12L2248.88-17.12L2248.88-17.12Q2248.88-11.12 2250.72-8L2250.72-8L2250.72-8Q2252.56-4.88 2255.92-4.88L2255.92-4.88L2255.92-4.88Q2257.60-4.88 2258.92-5.52L2258.92-5.52L2258.92-5.52Q2260.24-6.16 2261.12-7.60L2261.12-7.60L2261.12-7.60Q2262.00-9.04 2262.48-11.36L2262.48-11.36L2262.48-11.36Q2262.96-13.68 2262.96-17.12" fill="#ff0000" stroke="none" stroke-width="none" transform="translate(-1314.6400146484375,21.70854482343121)" style="fill: rgb(255, 0, 0);"></path></g><g class="path" style="transform: scale(0.91); transform-origin: 1006.72px -7.41146px; animation: 1s linear -0.106452s infinite normal forwards running breath-9f59ce65-b751-4933-a246-1573cb4f95ef;"><path d="M2318.80 0.96L2318.80 0.96L2318.80 0.96Q2314.96 0.96 2311.56-0.56L2311.56-0.56L2311.56-0.56Q2308.16-2.08 2305.64-4.88L2305.64-4.88L2305.64-4.88Q2303.12-7.68 2301.68-11.64L2301.68-11.64L2301.68-11.64Q2300.24-15.60 2300.24-20.56L2300.24-20.56L2300.24-20.56Q2300.24-25.28 2301.72-29.32L2301.72-29.32L2301.72-29.32Q2303.20-33.36 2305.72-36.28L2305.72-36.28L2305.72-36.28Q2308.24-39.20 2311.60-40.88L2311.60-40.88L2311.60-40.88Q2314.96-42.56 2318.72-42.56L2318.72-42.56L2318.72-42.56Q2322.88-42.56 2325.88-40.88L2325.88-40.88L2325.88-40.88Q2328.88-39.20 2330.56-37.44L2330.56-37.44L2330.56-59.20L2337.76-59.20L2337.76-10.08L2337.76-10.08Q2337.76-7.04 2339.24-6.12L2339.24-6.12L2339.24-6.12Q2340.72-5.20 2342.48-5.20L2342.48-5.20L2340.96 0.40L2340.96 0.40Q2333.36 0.40 2331.68-5.68L2331.68-5.68L2331.68-5.68Q2329.84-3.12 2326.72-1.08L2326.72-1.08L2326.72-1.08Q2323.60 0.96 2318.80 0.96zM2320.40-5.44L2320.40-5.44L2320.40-5.44Q2323.36-5.44 2326.04-6.84L2326.04-6.84L2326.04-6.84Q2328.72-8.24 2330.56-10.48L2330.56-10.48L2330.56-31.12L2330.56-31.12Q2329.04-33.04 2326.36-34.68L2326.36-34.68L2326.36-34.68Q2323.68-36.32 2320.32-36.32L2320.32-36.32L2320.32-36.32Q2317.44-36.32 2315.08-35.12L2315.08-35.12L2315.08-35.12Q2312.72-33.92 2311.04-31.84L2311.04-31.84L2311.04-31.84Q2309.36-29.76 2308.48-26.92L2308.48-26.92L2308.48-26.92Q2307.60-24.08 2307.60-20.80L2307.60-20.80L2307.60-20.80Q2307.60-17.44 2308.56-14.64L2308.56-14.64L2308.56-14.64Q2309.52-11.84 2311.24-9.80L2311.24-9.80L2311.24-9.80Q2312.96-7.76 2315.32-6.60L2315.32-6.60L2315.32-6.60Q2317.68-5.44 2320.40-5.44" fill="#ff0000" stroke="none" stroke-width="none" transform="translate(-1314.6400146484375,21.70854482343121)" style="fill: rgb(255, 0, 0);"></path></g><g class="path" style="transform: scale(0.91); transform-origin: 1041.04px 0.908546px; animation: 1s linear -0.0958065s infinite normal forwards running breath-9f59ce65-b751-4933-a246-1573cb4f95ef;"><path d="M2359.28-41.60L2359.28 0L2352.08 0L2352.08-41.60L2359.28-41.60" fill="#ff0000" stroke="none" stroke-width="none" transform="translate(-1314.6400146484375,21.70854482343121)" style="fill: rgb(255, 0, 0);"></path></g><g class="path" style="transform: scale(0.91); transform-origin: 1041.04px -32.0515px; animation: 1s linear -0.0851613s infinite normal forwards running breath-9f59ce65-b751-4933-a246-1573cb4f95ef;"><path d="M2355.68-48.72L2355.68-48.72L2355.68-48.72Q2353.60-48.72 2352.12-50.20L2352.12-50.20L2352.12-50.20Q2350.64-51.68 2350.64-53.76L2350.64-53.76L2350.64-53.76Q2350.64-56.08 2352.00-57.44L2352.00-57.44L2352.00-57.44Q2353.36-58.80 2355.68-58.80L2355.68-58.80L2355.68-58.80Q2357.76-58.80 2359.24-57.32L2359.24-57.32L2359.24-57.32Q2360.72-55.84 2360.72-53.76L2360.72-53.76L2360.72-53.76Q2360.72-51.44 2359.36-50.08L2359.36-50.08L2359.36-50.08Q2358.00-48.72 2355.68-48.72" fill="#ff0000" stroke="none" stroke-width="none" transform="translate(-1314.6400146484375,21.70854482343121)" style="fill: rgb(255, 0, 0);"></path></g><g class="path" style="transform: scale(0.91); transform-origin: 1069.56px 0.908545px; animation: 1s linear -0.0745161s infinite normal forwards running breath-9f59ce65-b751-4933-a246-1573cb4f95ef;"><path d="M2368.48-3.36L2371.52-9.36L2371.52-9.36Q2373.60-7.52 2376.76-6.40L2376.76-6.40L2376.76-6.40Q2379.92-5.28 2383.52-5.28L2383.52-5.28L2383.52-5.28Q2388.00-5.28 2390.28-6.76L2390.28-6.76L2390.28-6.76Q2392.56-8.24 2392.56-10.56L2392.56-10.56L2392.56-10.56Q2392.56-11.76 2392.12-12.80L2392.12-12.80L2392.12-12.80Q2391.68-13.84 2390.52-14.80L2390.52-14.80L2390.52-14.80Q2389.36-15.76 2387.36-16.68L2387.36-16.68L2387.36-16.68Q2385.36-17.60 2382.16-18.72L2382.16-18.72L2382.16-18.72Q2376.24-20.72 2373.36-23.48L2373.36-23.48L2373.36-23.48Q2370.48-26.24 2370.48-31.12L2370.48-31.12L2370.48-31.12Q2370.48-33.52 2371.56-35.60L2371.56-35.60L2371.56-35.60Q2372.64-37.68 2374.68-39.24L2374.68-39.24L2374.68-39.24Q2376.72-40.80 2379.64-41.68L2379.64-41.68L2379.64-41.68Q2382.56-42.56 2386.32-42.56L2386.32-42.56L2386.32-42.56Q2390.40-42.56 2393.48-41.72L2393.48-41.72L2393.48-41.72Q2396.56-40.88 2399.04-39.60L2399.04-39.60L2397.04-33.68L2397.04-33.68Q2394.88-34.96 2392.12-35.76L2392.12-35.76L2392.12-35.76Q2389.36-36.56 2386.00-36.56L2386.00-36.56L2386.00-36.56Q2381.84-36.56 2379.68-34.88L2379.68-34.88L2379.68-34.88Q2377.52-33.20 2377.52-31.20L2377.52-31.20L2377.52-31.20Q2377.52-30.24 2377.88-29.44L2377.88-29.44L2377.88-29.44Q2378.24-28.64 2379.20-27.92L2379.20-27.92L2379.20-27.92Q2380.16-27.20 2381.76-26.48L2381.76-26.48L2381.76-26.48Q2383.36-25.76 2385.76-24.96L2385.76-24.96L2385.76-24.96Q2389.68-23.60 2392.40-22.20L2392.40-22.20L2392.40-22.20Q2395.12-20.80 2396.80-19.12L2396.80-19.12L2396.80-19.12Q2398.48-17.44 2399.20-15.48L2399.20-15.48L2399.20-15.48Q2399.92-13.52 2399.92-11.12L2399.92-11.12L2399.92-11.12Q2399.92-8.32 2398.72-6.08L2398.72-6.08L2398.72-6.08Q2397.52-3.84 2395.36-2.28L2395.36-2.28L2395.36-2.28Q2393.20-0.72 2390.12 0.12L2390.12 0.12L2390.12 0.12Q2387.04 0.96 2383.28 0.96L2383.28 0.96L2383.28 0.96Q2378.48 0.96 2374.72-0.24L2374.72-0.24L2374.72-0.24Q2370.96-1.44 2368.48-3.36L2368.48-3.36" fill="#ff0000" stroke="none" stroke-width="none" transform="translate(-1314.6400146484375,21.70854482343121)" style="fill: rgb(255, 0, 0);"></path></g><g class="path" style="transform: scale(0.91); transform-origin: 1108.16px 0.908545px; animation: 1s linear -0.063871s infinite normal forwards running breath-9f59ce65-b751-4933-a246-1573cb4f95ef;"><path d="M2438.24-40.08L2436.08-34L2436.08-34Q2433.76-35.12 2431.76-35.64L2431.76-35.64L2431.76-35.64Q2429.76-36.16 2427.28-36.16L2427.28-36.16L2427.28-36.16Q2424.48-36.16 2422.04-35.12L2422.04-35.12L2422.04-35.12Q2419.60-34.08 2417.84-32.12L2417.84-32.12L2417.84-32.12Q2416.08-30.16 2415.08-27.36L2415.08-27.36L2415.08-27.36Q2414.08-24.56 2414.08-20.96L2414.08-20.96L2414.08-20.96Q2414.08-17.68 2415.00-14.88L2415.00-14.88L2415.00-14.88Q2415.92-12.08 2417.60-9.96L2417.60-9.96L2417.60-9.96Q2419.28-7.84 2421.60-6.64L2421.60-6.64L2421.60-6.64Q2423.92-5.44 2426.80-5.44L2426.80-5.44L2426.80-5.44Q2429.84-5.44 2432.00-6.08L2432.00-6.08L2432.00-6.08Q2434.16-6.72 2436.64-8.08L2436.64-8.08L2438.88-2L2438.88-2Q2436.32-0.64 2433.28 0.16L2433.28 0.16L2433.28 0.16Q2430.24 0.96 2426.32 0.96L2426.32 0.96L2426.32 0.96Q2421.84 0.96 2418.24-0.64L2418.24-0.64L2418.24-0.64Q2414.64-2.24 2412.08-5.12L2412.08-5.12L2412.08-5.12Q2409.52-8 2408.12-12L2408.12-12L2408.12-12Q2406.72-16 2406.72-20.80L2406.72-20.80L2406.72-20.80Q2406.72-25.28 2408.12-29.24L2408.12-29.24L2408.12-29.24Q2409.52-33.20 2412.16-36.16L2412.16-36.16L2412.16-36.16Q2414.80-39.12 2418.52-40.84L2418.52-40.84L2418.52-40.84Q2422.24-42.56 2426.88-42.56L2426.88-42.56L2426.88-42.56Q2430.48-42.56 2433.12-41.92L2433.12-41.92L2433.12-41.92Q2435.76-41.28 2438.24-40.08L2438.24-40.08" fill="#ff0000" stroke="none" stroke-width="none" transform="translate(-1314.6400146484375,21.70854482343121)" style="fill: rgb(255, 0, 0);"></path></g><g class="path" style="transform: scale(0.91); transform-origin: 1149.36px 0.908545px; animation: 1s linear -0.0532258s infinite normal forwards running breath-9f59ce65-b751-4933-a246-1573cb4f95ef;"><path d="M2477.36-20.80L2477.36-20.80L2477.36-20.80Q2477.36-23.92 2476.36-26.72L2476.36-26.72L2476.36-26.72Q2475.36-29.52 2473.56-31.60L2473.56-31.60L2473.56-31.60Q2471.76-33.68 2469.32-34.92L2469.32-34.92L2469.32-34.92Q2466.88-36.16 2464.00-36.16L2464.00-36.16L2464.00-36.16Q2457.68-36.16 2454.16-32L2454.16-32L2454.16-32Q2450.64-27.84 2450.64-20.96L2450.64-20.96L2450.64-20.96Q2450.64-17.84 2451.64-15L2451.64-15L2451.64-15Q2452.64-12.16 2454.44-10.04L2454.44-10.04L2454.44-10.04Q2456.24-7.92 2458.68-6.68L2458.68-6.68L2458.68-6.68Q2461.12-5.44 2464.00-5.44L2464.00-5.44L2464.00-5.44Q2467.12-5.44 2469.60-6.56L2469.60-6.56L2469.60-6.56Q2472.08-7.68 2473.80-9.72L2473.80-9.72L2473.80-9.72Q2475.52-11.76 2476.44-14.56L2476.44-14.56L2476.44-14.56Q2477.36-17.36 2477.36-20.80zM2443.28-20.80L2443.28-20.80L2443.28-20.80Q2443.28-25.84 2444.88-29.88L2444.88-29.88L2444.88-29.88Q2446.48-33.92 2449.24-36.72L2449.24-36.72L2449.24-36.72Q2452.00-39.52 2455.80-41.04L2455.80-41.04L2455.80-41.04Q2459.60-42.56 2464.00-42.56L2464.00-42.56L2464.00-42.56Q2468.32-42.56 2472.12-41.04L2472.12-41.04L2472.12-41.04Q2475.92-39.52 2478.72-36.72L2478.72-36.72L2478.72-36.72Q2481.52-33.92 2483.12-29.92L2483.12-29.92L2483.12-29.92Q2484.72-25.92 2484.72-20.96L2484.72-20.96L2484.72-20.96Q2484.72-16 2483.16-11.96L2483.16-11.96L2483.16-11.96Q2481.60-7.92 2478.80-5.04L2478.80-5.04L2478.80-5.04Q2476.00-2.16 2472.20-0.60L2472.20-0.60L2472.20-0.60Q2468.40 0.96 2464.00 0.96L2464.00 0.96L2464.00 0.96Q2459.52 0.96 2455.72-0.64L2455.72-0.64L2455.72-0.64Q2451.92-2.24 2449.16-5.12L2449.16-5.12L2449.16-5.12Q2446.40-8 2444.84-12L2444.84-12L2444.84-12Q2443.28-16 2443.28-20.80" fill="#ff0000" stroke="none" stroke-width="none" transform="translate(-1314.6400146484375,21.70854482343121)" style="fill: rgb(255, 0, 0);"></path></g><g class="path" style="transform: scale(0.91); transform-origin: 1198.84px 1.38855px; animation: 1s linear -0.0425806s infinite normal forwards running breath-9f59ce65-b751-4933-a246-1573cb4f95ef;"><path d="M2533.04-5.20L2531.52 0.40L2531.52 0.40Q2527.68 0.40 2525.44-1.12L2525.44-1.12L2525.44-1.12Q2523.20-2.64 2522.32-5.52L2522.32-5.52L2522.32-5.52Q2519.52-2.64 2515.88-0.84L2515.88-0.84L2515.88-0.84Q2512.24 0.96 2507.92 0.96L2507.92 0.96L2507.92 0.96Q2505.20 0.96 2502.68 0.12L2502.68 0.12L2502.68 0.12Q2500.16-0.72 2498.20-2.56L2498.20-2.56L2498.20-2.56Q2496.24-4.40 2495.08-7.36L2495.08-7.36L2495.08-7.36Q2493.92-10.32 2493.92-14.56L2493.92-14.56L2493.92-41.60L2501.12-41.60L2501.12-15.52L2501.12-15.52Q2501.12-10.64 2503.16-8.04L2503.16-8.04L2503.16-8.04Q2505.20-5.44 2509.28-5.44L2509.28-5.44L2509.28-5.44Q2512.64-5.44 2515.68-6.76L2515.68-6.76L2515.68-6.76Q2518.72-8.08 2521.12-10.32L2521.12-10.32L2521.12-41.60L2528.32-41.60L2528.32-10.80L2528.32-10.80Q2528.32-9.04 2528.72-7.96L2528.72-7.96L2528.72-7.96Q2529.12-6.88 2529.76-6.28L2529.76-6.28L2529.76-6.28Q2530.40-5.68 2531.28-5.44L2531.28-5.44L2531.28-5.44Q2532.16-5.20 2533.04-5.20L2533.04-5.20" fill="#ff0000" stroke="none" stroke-width="none" transform="translate(-1314.6400146484375,21.70854482343121)" style="fill: rgb(255, 0, 0);"></path></g><g class="path" style="transform: scale(0.91); transform-origin: 1245.48px 0.428545px; animation: 1s linear -0.0319355s infinite normal forwards running breath-9f59ce65-b751-4933-a246-1573cb4f95ef;"><path d="M2549.60-41.60L2549.60-34.64L2549.60-34.64Q2551.84-38 2555.32-40.28L2555.32-40.28L2555.32-40.28Q2558.80-42.56 2563.60-42.56L2563.60-42.56L2563.60-42.56Q2570.64-42.56 2574.12-38.32L2574.12-38.32L2574.12-38.32Q2577.60-34.08 2577.60-27.12L2577.60-27.12L2577.60 0L2570.40 0L2570.40-26.32L2570.40-26.32Q2570.40-30.88 2568.32-33.56L2568.32-33.56L2568.32-33.56Q2566.24-36.24 2562.40-36.24L2562.40-36.24L2562.40-36.24Q2560.56-36.24 2558.80-35.56L2558.80-35.56L2558.80-35.56Q2557.04-34.88 2555.40-33.68L2555.40-33.68L2555.40-33.68Q2553.76-32.48 2552.36-30.88L2552.36-30.88L2552.36-30.88Q2550.96-29.28 2549.84-27.52L2549.84-27.52L2549.84 0L2542.64 0L2542.64-41.60L2549.60-41.60" fill="#ff0000" stroke="none" stroke-width="none" transform="translate(-1314.6400146484375,21.70854482343121)" style="fill: rgb(255, 0, 0);"></path></g><g class="path" style="transform: scale(0.91); transform-origin: 1284.84px -4.41146px; animation: 1s linear -0.0212903s infinite normal forwards running breath-9f59ce65-b751-4933-a246-1573cb4f95ef;"><path d="M2591.76-40.08L2593.28-53.20L2598.80-53.20L2598.80-40.08L2610.32-40.08L2610.32-33.84L2598.80-33.84L2598.80-13.76L2598.80-13.76Q2598.80-11.44 2599.32-9.84L2599.32-9.84L2599.32-9.84Q2599.84-8.24 2600.72-7.28L2600.72-7.28L2600.72-7.28Q2601.60-6.32 2602.84-5.88L2602.84-5.88L2602.84-5.88Q2604.08-5.44 2605.44-5.44L2605.44-5.44L2605.44-5.44Q2607.44-5.44 2609.20-6.08L2609.20-6.08L2609.20-6.08Q2610.96-6.72 2612.56-7.60L2612.56-7.60L2614.56-1.84L2614.56-1.84Q2612.96-0.88 2610.24 0.04L2610.24 0.04L2610.24 0.04Q2607.52 0.96 2604.56 0.96L2604.56 0.96L2604.56 0.96Q2598.56 0.96 2595.08-2.96L2595.08-2.96L2595.08-2.96Q2591.60-6.88 2591.60-14.32L2591.60-14.32L2591.60-33.84L2584.40-33.84L2584.40-40.08L2591.76-40.08" fill="#ff0000" stroke="none" stroke-width="none" transform="translate(-1314.6400146484375,21.70854482343121)" style="fill: rgb(255, 0, 0);"></path></g><g class="path" style="transform: scale(0.91); transform-origin: 1313.2px -15.7315px; animation: 1s linear -0.0106452s infinite normal forwards running breath-9f59ce65-b751-4933-a246-1573cb4f95ef;"><path d="M2623.84-38.40L2623.84-58.32L2631.84-58.32L2631.84-38.40L2630.80-16.56L2624.88-16.56L2623.84-38.40" fill="#ff0000" stroke="none" stroke-width="none" transform="translate(-1314.6400146484375,21.70854482343121)" style="fill: rgb(255, 0, 0);"></path></g><g class="path" style="transform: scale(0.91); transform-origin: 1313.28px 17.3085px; animation: 1s linear 0s infinite normal forwards running breath-9f59ce65-b751-4933-a246-1573cb4f95ef;"><path d="M2622.56-4.40L2622.56-4.40L2622.56-4.40Q2622.56-6.88 2623.96-8.32L2623.96-8.32L2623.96-8.32Q2625.36-9.76 2627.92-9.76L2627.92-9.76L2627.92-9.76Q2630.00-9.76 2631.64-8.16L2631.64-8.16L2631.64-8.16Q2633.28-6.56 2633.28-4.40L2633.28-4.40L2633.28-4.40Q2633.28-2 2631.76-0.52L2631.76-0.52L2631.76-0.52Q2630.24 0.96 2627.92 0.96L2627.92 0.96L2627.92 0.96Q2625.76 0.96 2624.16-0.64L2624.16-0.64L2624.16-0.64Q2622.56-2.24 2622.56-4.40" fill="#ff0000" stroke="none" stroke-width="none" transform="translate(-1314.6400146484375,21.70854482343121)" style="fill: rgb(255, 0, 0);"></path></g></g>
</g>
</g>
<style id="breath-9f59ce65-b751-4933-a246-1573cb4f95ef" data-anikit="">@keyframes breath-9f59ce65-b751-4933-a246-1573cb4f95ef
{
  0% {
    animation-timing-function: cubic-bezier(0.9647,0.2413,-0.0705,0.7911);
    transform: scale(0.9099999999999999);
  }
  51% {
    animation-timing-function: cubic-bezier(0.9226,0.2631,-0.0308,0.7628);
    transform: scale(1.02994);
  }
  100% {
    transform: scale(0.9099999999999999);
  }
}</style></svg>